%
M48
M72
T01C0.01969
T02C0.02400
T03C0.03200
T04C0.04000
T05C0.04400
T06C0.12598
T07C0.13000
%
T01
X75950Y22200
X140950Y42200
X182200Y42200
X188450Y22200
X242200Y90950
X232244Y97200
X260950Y103450
X240950Y147200
X194700Y153450
X140950Y193450
X132200Y187200
X105950Y163450
X105950Y153450
X79700Y147200
X68360Y129610
X70950Y113450
X75950Y105950
X69700Y90950
X44700Y97200
X35950Y113450
X100950Y129700
X115950Y105950
X64700Y163450
X60950Y187200
X87200Y193450
X194700Y103450
T02
X177213Y107228
X157213Y107228
T03
X162244Y120852
X172170Y120852
X172170Y130852
X162244Y130852
X162244Y81728
X172244Y81728
X182244Y81728
X192244Y81728
X202244Y81728
X212244Y81728
X222244Y81728
X232244Y81728
X242244Y81728
X252244Y81728
X252244Y51728
X242244Y51728
X232244Y51728
X222244Y51728
X212244Y51728
X202244Y51728
X192244Y51728
X182244Y51728
X172244Y51728
X162244Y51728
X152244Y51728
X142244Y51728
X132244Y51728
X122244Y51728
X122244Y81728
X132244Y81728
X142244Y81728
X152244Y81728
X183343Y33159
X193343Y33159
X254684Y117306
X254684Y157306
X248326Y168214
X248326Y178214
X57876Y152594
X47876Y152594
X53389Y173547
X13389Y173547
X25950Y90950
X35950Y90950
X17108Y75250
X17108Y65250
X38508Y62506
X38508Y72506
T04
X57200Y77200
X57200Y87200
X57200Y67200
X15950Y104700
X15950Y114700
X15950Y124700
X15950Y134700
X15950Y144700
X15950Y154700
X19203Y186297
X19203Y204097
X44803Y204097
X44803Y186297
X72200Y175950
X82200Y175950
X92200Y175950
X102200Y175950
X112200Y175950
X122200Y175950
X125920Y202272
X115920Y202272
X105920Y202272
X95920Y202272
X135920Y202272
X145920Y202272
X155920Y202272
X165920Y202272
X181908Y202108
X191908Y202108
X201908Y202108
X211908Y202108
X221908Y202108
X231908Y202108
X241908Y202108
X251908Y202108
X252320Y12308
X242320Y12308
X232320Y12308
X222320Y12308
X212320Y12308
X202320Y12308
X181943Y12608
X171943Y12608
X161943Y12608
X151943Y12608
T05
X70108Y11093
X70108Y51093
X60950Y137200
X100950Y137200
T06
X262200Y32200
T07
X42900Y19700
X31100Y39400
X54700Y39400
M30
