G75*
%MOIN*%
%OFA0B0*%
%FSLAX25Y25*%
%IPPOS*%
%LPD*%
%AMOC8*
5,1,8,0,0,1.08239X$1,22.5*
%
%ADD10C,0.00000*%
%ADD11C,0.05200*%
%ADD12OC8,0.05200*%
%ADD13C,0.04400*%
%ADD14C,0.06000*%
%ADD15C,0.06600*%
%ADD16OC8,0.07000*%
%ADD17C,0.07000*%
%ADD18OC8,0.19000*%
%ADD19C,0.07400*%
%ADD20C,0.03200*%
%ADD21C,0.02400*%
D10*
X0001688Y0002357D02*
X0242200Y0002200D01*
X0262300Y0002157D01*
X0262257Y0002357D01*
X0262200Y0012200D01*
X0272349Y0022257D01*
X0272449Y0151758D01*
X0262200Y0161758D01*
X0262200Y0207258D01*
X0255400Y0212400D01*
X0001688Y0212558D01*
X0001688Y0002357D01*
X0255901Y0032200D02*
X0255903Y0032358D01*
X0255909Y0032516D01*
X0255919Y0032674D01*
X0255933Y0032832D01*
X0255951Y0032989D01*
X0255972Y0033146D01*
X0255998Y0033302D01*
X0256028Y0033458D01*
X0256061Y0033613D01*
X0256099Y0033766D01*
X0256140Y0033919D01*
X0256185Y0034071D01*
X0256234Y0034222D01*
X0256287Y0034371D01*
X0256343Y0034519D01*
X0256403Y0034665D01*
X0256467Y0034810D01*
X0256535Y0034953D01*
X0256606Y0035095D01*
X0256680Y0035235D01*
X0256758Y0035372D01*
X0256840Y0035508D01*
X0256924Y0035642D01*
X0257013Y0035773D01*
X0257104Y0035902D01*
X0257199Y0036029D01*
X0257296Y0036154D01*
X0257397Y0036276D01*
X0257501Y0036395D01*
X0257608Y0036512D01*
X0257718Y0036626D01*
X0257831Y0036737D01*
X0257946Y0036846D01*
X0258064Y0036951D01*
X0258185Y0037053D01*
X0258308Y0037153D01*
X0258434Y0037249D01*
X0258562Y0037342D01*
X0258692Y0037432D01*
X0258825Y0037518D01*
X0258960Y0037602D01*
X0259096Y0037681D01*
X0259235Y0037758D01*
X0259376Y0037830D01*
X0259518Y0037900D01*
X0259662Y0037965D01*
X0259808Y0038027D01*
X0259955Y0038085D01*
X0260104Y0038140D01*
X0260254Y0038191D01*
X0260405Y0038238D01*
X0260557Y0038281D01*
X0260710Y0038320D01*
X0260865Y0038356D01*
X0261020Y0038387D01*
X0261176Y0038415D01*
X0261332Y0038439D01*
X0261489Y0038459D01*
X0261647Y0038475D01*
X0261804Y0038487D01*
X0261963Y0038495D01*
X0262121Y0038499D01*
X0262279Y0038499D01*
X0262437Y0038495D01*
X0262596Y0038487D01*
X0262753Y0038475D01*
X0262911Y0038459D01*
X0263068Y0038439D01*
X0263224Y0038415D01*
X0263380Y0038387D01*
X0263535Y0038356D01*
X0263690Y0038320D01*
X0263843Y0038281D01*
X0263995Y0038238D01*
X0264146Y0038191D01*
X0264296Y0038140D01*
X0264445Y0038085D01*
X0264592Y0038027D01*
X0264738Y0037965D01*
X0264882Y0037900D01*
X0265024Y0037830D01*
X0265165Y0037758D01*
X0265304Y0037681D01*
X0265440Y0037602D01*
X0265575Y0037518D01*
X0265708Y0037432D01*
X0265838Y0037342D01*
X0265966Y0037249D01*
X0266092Y0037153D01*
X0266215Y0037053D01*
X0266336Y0036951D01*
X0266454Y0036846D01*
X0266569Y0036737D01*
X0266682Y0036626D01*
X0266792Y0036512D01*
X0266899Y0036395D01*
X0267003Y0036276D01*
X0267104Y0036154D01*
X0267201Y0036029D01*
X0267296Y0035902D01*
X0267387Y0035773D01*
X0267476Y0035642D01*
X0267560Y0035508D01*
X0267642Y0035372D01*
X0267720Y0035235D01*
X0267794Y0035095D01*
X0267865Y0034953D01*
X0267933Y0034810D01*
X0267997Y0034665D01*
X0268057Y0034519D01*
X0268113Y0034371D01*
X0268166Y0034222D01*
X0268215Y0034071D01*
X0268260Y0033919D01*
X0268301Y0033766D01*
X0268339Y0033613D01*
X0268372Y0033458D01*
X0268402Y0033302D01*
X0268428Y0033146D01*
X0268449Y0032989D01*
X0268467Y0032832D01*
X0268481Y0032674D01*
X0268491Y0032516D01*
X0268497Y0032358D01*
X0268499Y0032200D01*
X0268497Y0032042D01*
X0268491Y0031884D01*
X0268481Y0031726D01*
X0268467Y0031568D01*
X0268449Y0031411D01*
X0268428Y0031254D01*
X0268402Y0031098D01*
X0268372Y0030942D01*
X0268339Y0030787D01*
X0268301Y0030634D01*
X0268260Y0030481D01*
X0268215Y0030329D01*
X0268166Y0030178D01*
X0268113Y0030029D01*
X0268057Y0029881D01*
X0267997Y0029735D01*
X0267933Y0029590D01*
X0267865Y0029447D01*
X0267794Y0029305D01*
X0267720Y0029165D01*
X0267642Y0029028D01*
X0267560Y0028892D01*
X0267476Y0028758D01*
X0267387Y0028627D01*
X0267296Y0028498D01*
X0267201Y0028371D01*
X0267104Y0028246D01*
X0267003Y0028124D01*
X0266899Y0028005D01*
X0266792Y0027888D01*
X0266682Y0027774D01*
X0266569Y0027663D01*
X0266454Y0027554D01*
X0266336Y0027449D01*
X0266215Y0027347D01*
X0266092Y0027247D01*
X0265966Y0027151D01*
X0265838Y0027058D01*
X0265708Y0026968D01*
X0265575Y0026882D01*
X0265440Y0026798D01*
X0265304Y0026719D01*
X0265165Y0026642D01*
X0265024Y0026570D01*
X0264882Y0026500D01*
X0264738Y0026435D01*
X0264592Y0026373D01*
X0264445Y0026315D01*
X0264296Y0026260D01*
X0264146Y0026209D01*
X0263995Y0026162D01*
X0263843Y0026119D01*
X0263690Y0026080D01*
X0263535Y0026044D01*
X0263380Y0026013D01*
X0263224Y0025985D01*
X0263068Y0025961D01*
X0262911Y0025941D01*
X0262753Y0025925D01*
X0262596Y0025913D01*
X0262437Y0025905D01*
X0262279Y0025901D01*
X0262121Y0025901D01*
X0261963Y0025905D01*
X0261804Y0025913D01*
X0261647Y0025925D01*
X0261489Y0025941D01*
X0261332Y0025961D01*
X0261176Y0025985D01*
X0261020Y0026013D01*
X0260865Y0026044D01*
X0260710Y0026080D01*
X0260557Y0026119D01*
X0260405Y0026162D01*
X0260254Y0026209D01*
X0260104Y0026260D01*
X0259955Y0026315D01*
X0259808Y0026373D01*
X0259662Y0026435D01*
X0259518Y0026500D01*
X0259376Y0026570D01*
X0259235Y0026642D01*
X0259096Y0026719D01*
X0258960Y0026798D01*
X0258825Y0026882D01*
X0258692Y0026968D01*
X0258562Y0027058D01*
X0258434Y0027151D01*
X0258308Y0027247D01*
X0258185Y0027347D01*
X0258064Y0027449D01*
X0257946Y0027554D01*
X0257831Y0027663D01*
X0257718Y0027774D01*
X0257608Y0027888D01*
X0257501Y0028005D01*
X0257397Y0028124D01*
X0257296Y0028246D01*
X0257199Y0028371D01*
X0257104Y0028498D01*
X0257013Y0028627D01*
X0256924Y0028758D01*
X0256840Y0028892D01*
X0256758Y0029028D01*
X0256680Y0029165D01*
X0256606Y0029305D01*
X0256535Y0029447D01*
X0256467Y0029590D01*
X0256403Y0029735D01*
X0256343Y0029881D01*
X0256287Y0030029D01*
X0256234Y0030178D01*
X0256185Y0030329D01*
X0256140Y0030481D01*
X0256099Y0030634D01*
X0256061Y0030787D01*
X0256028Y0030942D01*
X0255998Y0031098D01*
X0255972Y0031254D01*
X0255951Y0031411D01*
X0255933Y0031568D01*
X0255919Y0031726D01*
X0255909Y0031884D01*
X0255903Y0032042D01*
X0255901Y0032200D01*
D11*
X0252244Y0049128D02*
X0252244Y0054328D01*
X0242244Y0054328D02*
X0242244Y0049128D01*
X0232244Y0049128D02*
X0232244Y0054328D01*
X0222244Y0054328D02*
X0222244Y0049128D01*
X0212244Y0049128D02*
X0212244Y0054328D01*
X0202244Y0054328D02*
X0202244Y0049128D01*
X0192244Y0049128D02*
X0192244Y0054328D01*
X0182244Y0054328D02*
X0182244Y0049128D01*
X0172244Y0049128D02*
X0172244Y0054328D01*
X0162244Y0054328D02*
X0162244Y0049128D01*
X0152244Y0049128D02*
X0152244Y0054328D01*
X0142244Y0054328D02*
X0142244Y0049128D01*
X0132244Y0049128D02*
X0132244Y0054328D01*
X0122244Y0054328D02*
X0122244Y0049128D01*
X0122244Y0079128D02*
X0122244Y0084328D01*
X0132244Y0084328D02*
X0132244Y0079128D01*
X0142244Y0079128D02*
X0142244Y0084328D01*
X0152244Y0084328D02*
X0152244Y0079128D01*
X0162244Y0079128D02*
X0162244Y0084328D01*
X0172244Y0084328D02*
X0172244Y0079128D01*
X0182244Y0079128D02*
X0182244Y0084328D01*
X0192244Y0084328D02*
X0192244Y0079128D01*
X0202244Y0079128D02*
X0202244Y0084328D01*
X0212244Y0084328D02*
X0212244Y0079128D01*
X0222244Y0079128D02*
X0222244Y0084328D01*
X0232244Y0084328D02*
X0232244Y0079128D01*
X0242244Y0079128D02*
X0242244Y0084328D01*
X0252244Y0084328D02*
X0252244Y0079128D01*
D12*
X0254684Y0117306D03*
X0254684Y0157306D03*
X0248326Y0168214D03*
X0248326Y0178214D03*
X0172170Y0130852D03*
X0162244Y0130852D03*
X0162244Y0120852D03*
X0172170Y0120852D03*
X0183343Y0033159D03*
X0193343Y0033159D03*
X0038508Y0062506D03*
X0038508Y0072506D03*
X0035950Y0090950D03*
X0025950Y0090950D03*
X0013389Y0173547D03*
X0053389Y0173547D03*
D13*
X0157213Y0109428D02*
X0157213Y0105028D01*
X0177213Y0105028D02*
X0177213Y0109428D01*
D14*
X0181908Y0199108D02*
X0181908Y0205108D01*
X0191908Y0205108D02*
X0191908Y0199108D01*
X0201908Y0199108D02*
X0201908Y0205108D01*
X0211908Y0205108D02*
X0211908Y0199108D01*
X0221908Y0199108D02*
X0221908Y0205108D01*
X0231908Y0205108D02*
X0231908Y0199108D01*
X0241908Y0199108D02*
X0241908Y0205108D01*
X0251908Y0205108D02*
X0251908Y0199108D01*
X0165920Y0199272D02*
X0165920Y0205272D01*
X0155920Y0205272D02*
X0155920Y0199272D01*
X0145920Y0199272D02*
X0145920Y0205272D01*
X0135920Y0205272D02*
X0135920Y0199272D01*
X0125920Y0199272D02*
X0125920Y0205272D01*
X0115920Y0205272D02*
X0115920Y0199272D01*
X0105920Y0199272D02*
X0105920Y0205272D01*
X0095920Y0205272D02*
X0095920Y0199272D01*
X0047803Y0204097D02*
X0041803Y0204097D01*
X0022203Y0204097D02*
X0016203Y0204097D01*
X0016203Y0186297D02*
X0022203Y0186297D01*
X0041803Y0186297D02*
X0047803Y0186297D01*
X0054200Y0087200D02*
X0060200Y0087200D01*
X0060200Y0077200D02*
X0054200Y0077200D01*
X0054200Y0067200D02*
X0060200Y0067200D01*
X0151943Y0015608D02*
X0151943Y0009608D01*
X0161943Y0009608D02*
X0161943Y0015608D01*
X0171943Y0015608D02*
X0171943Y0009608D01*
X0181943Y0009608D02*
X0181943Y0015608D01*
X0202320Y0015308D02*
X0202320Y0009308D01*
X0212320Y0009308D02*
X0212320Y0015308D01*
X0222320Y0015308D02*
X0222320Y0009308D01*
X0232320Y0009308D02*
X0232320Y0015308D01*
X0242320Y0015308D02*
X0242320Y0009308D01*
X0252320Y0009308D02*
X0252320Y0015308D01*
D15*
X0188450Y0022200D03*
X0182200Y0042200D03*
X0140950Y0042200D03*
X0075950Y0022200D03*
X0070108Y0011093D03*
X0070108Y0051093D03*
X0069700Y0090950D03*
X0075950Y0105950D03*
X0070950Y0113450D03*
X0068360Y0129610D03*
X0060950Y0137200D03*
X0079700Y0147200D03*
X0100950Y0137200D03*
X0100950Y0129700D03*
X0105950Y0153450D03*
X0105950Y0163450D03*
X0132200Y0187200D03*
X0140950Y0193450D03*
X0194700Y0153450D03*
X0240950Y0147200D03*
X0260950Y0103450D03*
X0242200Y0090950D03*
X0232244Y0097200D03*
X0194700Y0103450D03*
X0115950Y0105950D03*
X0044700Y0097200D03*
X0035950Y0113450D03*
X0064700Y0163450D03*
X0060950Y0187200D03*
X0087200Y0193450D03*
D16*
X0047876Y0152594D03*
X0017108Y0075250D03*
D17*
X0017108Y0065250D03*
X0057876Y0152594D03*
D18*
X0054700Y0039400D03*
X0031100Y0039400D03*
X0042900Y0019700D03*
D19*
X0015950Y0104700D03*
X0015950Y0114700D03*
X0015950Y0124700D03*
X0015950Y0134700D03*
X0015950Y0144700D03*
X0015950Y0154700D03*
X0072200Y0175950D03*
X0082200Y0175950D03*
X0092200Y0175950D03*
X0102200Y0175950D03*
X0112200Y0175950D03*
X0122200Y0175950D03*
D20*
X0122200Y0160950D01*
X0100950Y0139700D01*
X0100950Y0129700D01*
X0100950Y0137200D01*
X0110950Y0140950D02*
X0110950Y0128450D01*
X0095950Y0113450D01*
X0095950Y0043450D01*
X0105950Y0033450D01*
X0132200Y0033450D01*
X0140950Y0042200D01*
X0132244Y0043494D02*
X0129700Y0040950D01*
X0107200Y0040950D01*
X0102200Y0045950D01*
X0102200Y0110950D01*
X0117200Y0125950D01*
X0117200Y0138450D01*
X0149700Y0170950D01*
X0149700Y0194700D01*
X0145950Y0198450D01*
X0145950Y0202242D01*
X0145920Y0202272D01*
X0155920Y0202272D02*
X0155950Y0202242D01*
X0155950Y0168450D01*
X0123450Y0135950D01*
X0123450Y0123450D01*
X0108450Y0108450D01*
X0108450Y0054700D01*
X0112200Y0050950D01*
X0122200Y0050950D01*
X0122244Y0050994D01*
X0122244Y0051728D01*
X0132244Y0051728D02*
X0132244Y0043494D01*
X0142200Y0051772D02*
X0142200Y0058450D01*
X0135950Y0064700D01*
X0120950Y0064700D01*
X0115950Y0069700D01*
X0115950Y0105950D01*
X0122244Y0099744D02*
X0129700Y0107200D01*
X0129744Y0133494D01*
X0165920Y0169670D01*
X0165920Y0202272D01*
X0181908Y0202108D02*
X0182200Y0201816D01*
X0182200Y0177200D01*
X0135950Y0130950D01*
X0135950Y0092200D01*
X0132244Y0088494D01*
X0132244Y0081728D01*
X0142244Y0081728D02*
X0142244Y0128494D01*
X0188450Y0174700D01*
X0188450Y0190950D01*
X0192200Y0194700D01*
X0192200Y0201816D01*
X0191908Y0202108D01*
X0201908Y0202108D02*
X0202200Y0201816D01*
X0202200Y0195950D01*
X0194700Y0188450D01*
X0194700Y0172200D01*
X0150950Y0128450D01*
X0150950Y0099700D01*
X0152244Y0098406D01*
X0152244Y0081728D01*
X0162244Y0081728D02*
X0162244Y0095906D01*
X0157200Y0100950D01*
X0157200Y0115966D01*
X0157213Y0107228D01*
X0157213Y0117071D01*
X0162244Y0120852D01*
X0172170Y0120852D02*
X0177213Y0115810D01*
X0177213Y0107228D01*
X0177200Y0115966D01*
X0177200Y0100950D01*
X0172244Y0095994D01*
X0172244Y0081728D01*
X0177200Y0064700D02*
X0258450Y0064700D01*
X0262200Y0068450D01*
X0262200Y0102200D01*
X0260950Y0103450D01*
X0254684Y0109716D01*
X0254684Y0117306D01*
X0240950Y0107200D02*
X0240950Y0147200D01*
X0253556Y0157306D02*
X0254700Y0158450D01*
X0254700Y0165950D01*
X0253450Y0167200D01*
X0249339Y0167200D01*
X0248326Y0168214D01*
X0253556Y0157306D02*
X0254684Y0157306D01*
X0233450Y0179700D02*
X0239700Y0185950D01*
X0247200Y0185950D01*
X0252200Y0190950D01*
X0252200Y0201816D01*
X0251908Y0202108D01*
X0242200Y0201816D02*
X0241908Y0202108D01*
X0242200Y0201816D02*
X0242200Y0194700D01*
X0239700Y0192200D01*
X0237200Y0192200D01*
X0227200Y0182200D01*
X0227200Y0103450D01*
X0232244Y0098406D01*
X0232244Y0097200D01*
X0232244Y0081728D01*
X0222244Y0081728D02*
X0222244Y0099656D01*
X0219700Y0102200D01*
X0219700Y0183450D01*
X0232200Y0195950D01*
X0232200Y0201816D01*
X0231908Y0202108D01*
X0222200Y0201816D02*
X0222200Y0195950D01*
X0212244Y0185994D01*
X0212244Y0081728D01*
X0202244Y0081728D02*
X0202244Y0185994D01*
X0212200Y0195950D01*
X0212200Y0201816D01*
X0211908Y0202108D01*
X0221908Y0202108D02*
X0222200Y0201816D01*
X0233450Y0179700D02*
X0233450Y0105950D01*
X0242200Y0097200D01*
X0242200Y0090950D01*
X0242244Y0097156D01*
X0242244Y0081728D01*
X0252244Y0081728D02*
X0252244Y0095906D01*
X0240950Y0107200D01*
X0194700Y0103450D02*
X0192200Y0100950D01*
X0192200Y0081772D01*
X0192244Y0081728D01*
X0177200Y0064700D02*
X0172244Y0059744D01*
X0172244Y0051728D01*
X0172244Y0033450D01*
X0172535Y0033159D01*
X0183343Y0033159D01*
X0182200Y0042200D02*
X0182200Y0051684D01*
X0182244Y0051728D01*
X0192200Y0051684D02*
X0192200Y0044700D01*
X0193343Y0043557D01*
X0193343Y0033159D01*
X0188450Y0022200D02*
X0184700Y0022200D01*
X0181943Y0019443D01*
X0181943Y0012608D01*
X0202244Y0012383D02*
X0202320Y0012308D01*
X0202244Y0012383D02*
X0202244Y0051728D01*
X0192244Y0051728D02*
X0192200Y0051684D01*
X0212244Y0051728D02*
X0212244Y0012383D01*
X0212320Y0012308D01*
X0222244Y0012383D02*
X0222320Y0012308D01*
X0222244Y0012383D02*
X0222244Y0051728D01*
X0232244Y0051728D02*
X0232244Y0012383D01*
X0232320Y0012308D01*
X0242244Y0012383D02*
X0242320Y0012308D01*
X0242244Y0012383D02*
X0242244Y0051728D01*
X0252244Y0051728D02*
X0252244Y0044744D01*
X0248450Y0040950D01*
X0248450Y0025950D01*
X0252200Y0022200D01*
X0252200Y0012428D01*
X0252320Y0012308D01*
X0172244Y0030994D02*
X0172244Y0033450D01*
X0172244Y0030994D02*
X0163450Y0022200D01*
X0154700Y0022200D01*
X0152200Y0019700D01*
X0152200Y0014700D01*
X0098450Y0014700D01*
X0077200Y0035950D01*
X0077200Y0079700D01*
X0077200Y0093450D01*
X0070950Y0099700D01*
X0062200Y0099700D01*
X0057200Y0104700D01*
X0057200Y0118450D01*
X0068360Y0129610D01*
X0068450Y0139700D01*
X0063450Y0144700D01*
X0060950Y0144700D01*
X0057876Y0147774D01*
X0057876Y0152594D01*
X0054126Y0156524D01*
X0049700Y0160950D01*
X0034700Y0160950D01*
X0022200Y0173450D01*
X0013485Y0173450D01*
X0013389Y0173547D01*
X0019203Y0186297D02*
X0044803Y0186297D01*
X0050047Y0186297D01*
X0057200Y0193450D01*
X0064700Y0193450D01*
X0082200Y0175950D01*
X0082200Y0160950D01*
X0079700Y0158450D01*
X0079700Y0147200D01*
X0080950Y0145950D01*
X0080950Y0124700D01*
X0070950Y0114700D01*
X0070950Y0113450D01*
X0063450Y0115950D02*
X0074700Y0127200D01*
X0074700Y0142200D01*
X0072200Y0144700D01*
X0072200Y0175950D01*
X0072200Y0177200D01*
X0062200Y0187200D01*
X0060950Y0187200D01*
X0044803Y0186297D02*
X0044700Y0186194D01*
X0044700Y0177200D01*
X0048353Y0173547D01*
X0053389Y0173547D01*
X0060950Y0169700D02*
X0060950Y0167200D01*
X0064700Y0163450D01*
X0087200Y0154700D02*
X0087200Y0122200D01*
X0083450Y0118450D01*
X0083450Y0038450D01*
X0100950Y0020950D01*
X0142200Y0020950D01*
X0162200Y0040950D01*
X0162200Y0051684D01*
X0162244Y0051728D01*
X0152244Y0051728D02*
X0152244Y0040994D01*
X0138450Y0027200D01*
X0103450Y0027200D01*
X0089700Y0040950D01*
X0089700Y0115950D01*
X0093450Y0119700D01*
X0093450Y0150950D01*
X0098450Y0155950D01*
X0098450Y0167200D01*
X0102200Y0170950D01*
X0102200Y0175950D01*
X0102200Y0178450D01*
X0105950Y0182200D01*
X0120950Y0182200D01*
X0125920Y0187170D01*
X0125920Y0202272D01*
X0115920Y0202272D02*
X0115920Y0192170D01*
X0110950Y0187200D01*
X0102200Y0187200D01*
X0092200Y0177200D01*
X0092200Y0175950D01*
X0092200Y0159700D01*
X0087200Y0154700D01*
X0105950Y0154700D02*
X0105950Y0153450D01*
X0110950Y0140950D02*
X0140950Y0170950D01*
X0140950Y0193450D01*
X0135950Y0197200D02*
X0135950Y0202242D01*
X0135920Y0202272D01*
X0135950Y0197200D02*
X0134700Y0195950D01*
X0134700Y0189700D01*
X0132200Y0187200D01*
X0095920Y0202272D02*
X0089772Y0202272D01*
X0087200Y0199700D01*
X0087200Y0193450D01*
X0028450Y0154700D02*
X0015950Y0154700D01*
X0015950Y0144700D02*
X0027200Y0144700D01*
X0028450Y0145950D01*
X0015950Y0134700D02*
X0058450Y0134700D01*
X0060950Y0137200D01*
X0068450Y0137020D02*
X0068360Y0129610D01*
X0068450Y0129700D01*
X0068450Y0137020D01*
X0050950Y0118450D02*
X0050950Y0100950D01*
X0058450Y0093450D01*
X0065950Y0093450D01*
X0068450Y0090950D01*
X0069700Y0090950D01*
X0063450Y0087200D02*
X0070950Y0079700D01*
X0077200Y0079700D01*
X0063450Y0087200D02*
X0057200Y0087200D01*
X0044700Y0097200D02*
X0044700Y0115950D01*
X0039700Y0120950D01*
X0032200Y0120950D01*
X0025950Y0114700D01*
X0015950Y0114700D01*
X0020950Y0123450D02*
X0025950Y0123450D01*
X0029700Y0127200D01*
X0042200Y0127200D01*
X0050950Y0118450D01*
X0063450Y0115950D02*
X0063450Y0109700D01*
X0067200Y0105950D01*
X0075950Y0105950D01*
X0035950Y0113450D02*
X0035950Y0090950D01*
X0025950Y0090950D02*
X0015950Y0100950D01*
X0015950Y0104700D01*
X0020950Y0123450D02*
X0019700Y0124700D01*
X0015950Y0124700D01*
X0047200Y0067200D02*
X0043450Y0063450D01*
X0039452Y0063450D01*
X0038508Y0062506D01*
X0019851Y0062506D01*
X0017108Y0065250D01*
X0017108Y0054792D01*
X0018450Y0053450D01*
X0067750Y0053450D01*
X0070108Y0051093D01*
X0070950Y0050250D01*
X0070950Y0027200D01*
X0075950Y0022200D01*
X0070108Y0011093D02*
X0066215Y0010950D01*
X0059700Y0017200D01*
X0059700Y0027200D01*
X0054700Y0032200D01*
X0054700Y0039400D01*
X0057200Y0067200D02*
X0047200Y0067200D01*
X0122244Y0081728D02*
X0122244Y0099744D01*
X0142200Y0051772D02*
X0142244Y0051728D01*
X0152200Y0014700D02*
X0152200Y0012865D01*
X0151943Y0012608D01*
D21*
X0161943Y0012608D02*
X0171942Y0012608D01*
X0171942Y0012608D01*
X0166743Y0012608D01*
X0161943Y0012608D01*
X0161943Y0012608D01*
X0166943Y0017047D02*
X0166762Y0017604D01*
X0166390Y0018333D01*
X0166144Y0018672D01*
X0174736Y0027264D01*
X0175974Y0028502D01*
X0176081Y0028759D01*
X0180106Y0028759D01*
X0181106Y0027759D01*
X0185580Y0027759D01*
X0188743Y0030923D01*
X0188743Y0030971D01*
X0191355Y0028359D01*
X0193343Y0028359D01*
X0195331Y0028359D01*
X0197844Y0030872D01*
X0197844Y0019035D01*
X0197403Y0018593D01*
X0196520Y0016462D01*
X0196520Y0008154D01*
X0196820Y0007430D01*
X0187321Y0007436D01*
X0187743Y0008454D01*
X0187743Y0016100D01*
X0189663Y0016100D01*
X0191905Y0017029D01*
X0193621Y0018745D01*
X0194550Y0020987D01*
X0194550Y0023413D01*
X0193621Y0025655D01*
X0191905Y0027371D01*
X0189663Y0028300D01*
X0187237Y0028300D01*
X0184995Y0027371D01*
X0184223Y0026600D01*
X0183825Y0026600D01*
X0182208Y0025930D01*
X0180970Y0024692D01*
X0178212Y0021935D01*
X0177543Y0020318D01*
X0177543Y0019410D01*
X0177026Y0018893D01*
X0176613Y0017896D01*
X0176390Y0018333D01*
X0175909Y0018995D01*
X0175330Y0019574D01*
X0174668Y0020055D01*
X0173939Y0020427D01*
X0173160Y0020680D01*
X0172352Y0020808D01*
X0171943Y0020808D01*
X0171943Y0012608D01*
X0171942Y0012608D01*
X0171942Y0020808D01*
X0171533Y0020808D01*
X0170725Y0020680D01*
X0169946Y0020427D01*
X0169217Y0020055D01*
X0168555Y0019574D01*
X0167976Y0018995D01*
X0167495Y0018333D01*
X0167123Y0017604D01*
X0166943Y0017047D01*
X0166462Y0018990D02*
X0167972Y0018990D01*
X0168861Y0021388D02*
X0177986Y0021388D01*
X0177122Y0018990D02*
X0175913Y0018990D01*
X0171943Y0018990D02*
X0171942Y0018990D01*
X0171942Y0016591D02*
X0171943Y0016591D01*
X0171942Y0014193D02*
X0171943Y0014193D01*
X0171259Y0023787D02*
X0180064Y0023787D01*
X0182823Y0026185D02*
X0173658Y0026185D01*
X0176008Y0028584D02*
X0180282Y0028584D01*
X0186404Y0028584D02*
X0191131Y0028584D01*
X0193343Y0028584D02*
X0193343Y0028584D01*
X0193343Y0028359D02*
X0193343Y0033159D01*
X0193343Y0033159D01*
X0193343Y0028359D01*
X0193092Y0026185D02*
X0197844Y0026185D01*
X0197844Y0023787D02*
X0194395Y0023787D01*
X0194550Y0021388D02*
X0197844Y0021388D01*
X0197799Y0018990D02*
X0193723Y0018990D01*
X0196573Y0016591D02*
X0190849Y0016591D01*
X0187743Y0014193D02*
X0196520Y0014193D01*
X0196520Y0011794D02*
X0187743Y0011794D01*
X0187743Y0009396D02*
X0196520Y0009396D01*
X0195555Y0028584D02*
X0197844Y0028584D01*
X0193343Y0030982D02*
X0193343Y0030982D01*
X0193343Y0033160D02*
X0193343Y0037959D01*
X0193343Y0033160D01*
X0193343Y0033160D01*
X0193343Y0033381D02*
X0193343Y0033381D01*
X0193343Y0035779D02*
X0193343Y0035779D01*
X0193343Y0037959D02*
X0191355Y0037959D01*
X0188743Y0035348D01*
X0188743Y0035396D01*
X0186383Y0037756D01*
X0187371Y0038745D01*
X0188300Y0040987D01*
X0188300Y0043413D01*
X0187371Y0045655D01*
X0186862Y0046165D01*
X0187589Y0047922D01*
X0187796Y0047286D01*
X0188139Y0046613D01*
X0188583Y0046001D01*
X0189117Y0045467D01*
X0189728Y0045023D01*
X0190402Y0044680D01*
X0191120Y0044447D01*
X0191866Y0044328D01*
X0192244Y0044328D01*
X0192244Y0051728D01*
X0192244Y0051728D01*
X0192244Y0044328D01*
X0192622Y0044328D01*
X0193368Y0044447D01*
X0194087Y0044680D01*
X0194760Y0045023D01*
X0195371Y0045467D01*
X0195905Y0046001D01*
X0196349Y0046613D01*
X0196692Y0047286D01*
X0196899Y0047922D01*
X0197666Y0046069D01*
X0197844Y0045892D01*
X0197844Y0035446D01*
X0195331Y0037959D01*
X0193343Y0037959D01*
X0197511Y0035779D02*
X0197844Y0035779D01*
X0197844Y0038178D02*
X0186804Y0038178D01*
X0188130Y0040576D02*
X0197844Y0040576D01*
X0197844Y0042975D02*
X0188300Y0042975D01*
X0187488Y0045373D02*
X0189246Y0045373D01*
X0187638Y0047772D02*
X0187527Y0047772D01*
X0192244Y0047772D02*
X0192244Y0047772D01*
X0192244Y0050170D02*
X0192244Y0050170D01*
X0192244Y0051728D02*
X0192244Y0059128D01*
X0191866Y0059128D01*
X0191120Y0059010D01*
X0190402Y0058777D01*
X0189728Y0058434D01*
X0189117Y0057990D01*
X0188583Y0057455D01*
X0188139Y0056844D01*
X0187796Y0056171D01*
X0187589Y0055535D01*
X0186822Y0057387D01*
X0185303Y0058906D01*
X0183318Y0059728D01*
X0181170Y0059728D01*
X0179185Y0058906D01*
X0177666Y0057387D01*
X0177244Y0056368D01*
X0176822Y0057387D01*
X0176644Y0057565D01*
X0176644Y0057922D01*
X0179023Y0060300D01*
X0259325Y0060300D01*
X0260942Y0060970D01*
X0264692Y0064720D01*
X0265930Y0065958D01*
X0266600Y0067575D01*
X0266600Y0101150D01*
X0267050Y0102237D01*
X0267050Y0104663D01*
X0266121Y0106905D01*
X0264405Y0108621D01*
X0262163Y0109550D01*
X0261073Y0109550D01*
X0259084Y0111538D01*
X0259084Y0114070D01*
X0260084Y0115070D01*
X0260084Y0119543D01*
X0256921Y0122706D01*
X0252448Y0122706D01*
X0249284Y0119543D01*
X0249284Y0115070D01*
X0250284Y0114070D01*
X0250284Y0108841D01*
X0250954Y0107223D01*
X0254850Y0103327D01*
X0254850Y0102237D01*
X0255779Y0099995D01*
X0257495Y0098279D01*
X0257800Y0098152D01*
X0257800Y0070273D01*
X0256627Y0069100D01*
X0176325Y0069100D01*
X0174708Y0068430D01*
X0173470Y0067192D01*
X0168514Y0062236D01*
X0167844Y0060619D01*
X0167844Y0057565D01*
X0167666Y0057387D01*
X0167244Y0056368D01*
X0166822Y0057387D01*
X0165303Y0058906D01*
X0163318Y0059728D01*
X0161170Y0059728D01*
X0159185Y0058906D01*
X0157666Y0057387D01*
X0157244Y0056368D01*
X0156822Y0057387D01*
X0155303Y0058906D01*
X0153318Y0059728D01*
X0151170Y0059728D01*
X0149185Y0058906D01*
X0147666Y0057387D01*
X0147244Y0056368D01*
X0146822Y0057387D01*
X0146600Y0057609D01*
X0146600Y0059325D01*
X0145930Y0060942D01*
X0139680Y0067192D01*
X0138442Y0068430D01*
X0136825Y0069100D01*
X0122773Y0069100D01*
X0120350Y0071523D01*
X0120350Y0074068D01*
X0121170Y0073728D01*
X0123318Y0073728D01*
X0125303Y0074550D01*
X0126822Y0076069D01*
X0127244Y0077089D01*
X0127666Y0076069D01*
X0129185Y0074550D01*
X0131170Y0073728D01*
X0133318Y0073728D01*
X0135303Y0074550D01*
X0136822Y0076069D01*
X0137244Y0077089D01*
X0137666Y0076069D01*
X0139185Y0074550D01*
X0141170Y0073728D01*
X0143318Y0073728D01*
X0145303Y0074550D01*
X0146822Y0076069D01*
X0147244Y0077089D01*
X0147666Y0076069D01*
X0149185Y0074550D01*
X0151170Y0073728D01*
X0153318Y0073728D01*
X0155303Y0074550D01*
X0156822Y0076069D01*
X0157244Y0077089D01*
X0157666Y0076069D01*
X0159185Y0074550D01*
X0161170Y0073728D01*
X0163318Y0073728D01*
X0165303Y0074550D01*
X0166822Y0076069D01*
X0167244Y0077089D01*
X0167666Y0076069D01*
X0169185Y0074550D01*
X0171170Y0073728D01*
X0173318Y0073728D01*
X0175303Y0074550D01*
X0176822Y0076069D01*
X0177589Y0077922D01*
X0177796Y0077286D01*
X0178139Y0076613D01*
X0178583Y0076001D01*
X0179117Y0075467D01*
X0179728Y0075023D01*
X0180402Y0074680D01*
X0181120Y0074447D01*
X0181866Y0074328D01*
X0182244Y0074328D01*
X0182244Y0081728D01*
X0182244Y0081728D01*
X0182244Y0074328D01*
X0182622Y0074328D01*
X0183368Y0074447D01*
X0184087Y0074680D01*
X0184760Y0075023D01*
X0185371Y0075467D01*
X0185905Y0076001D01*
X0186349Y0076613D01*
X0186692Y0077286D01*
X0186899Y0077922D01*
X0187666Y0076069D01*
X0189185Y0074550D01*
X0191170Y0073728D01*
X0193318Y0073728D01*
X0195303Y0074550D01*
X0196822Y0076069D01*
X0197244Y0077089D01*
X0197666Y0076069D01*
X0199185Y0074550D01*
X0201170Y0073728D01*
X0203318Y0073728D01*
X0205303Y0074550D01*
X0206822Y0076069D01*
X0207244Y0077089D01*
X0207666Y0076069D01*
X0209185Y0074550D01*
X0211170Y0073728D01*
X0213318Y0073728D01*
X0215303Y0074550D01*
X0216822Y0076069D01*
X0217244Y0077089D01*
X0217666Y0076069D01*
X0219185Y0074550D01*
X0221170Y0073728D01*
X0223318Y0073728D01*
X0225303Y0074550D01*
X0226822Y0076069D01*
X0227244Y0077089D01*
X0227666Y0076069D01*
X0229185Y0074550D01*
X0231170Y0073728D01*
X0233318Y0073728D01*
X0235303Y0074550D01*
X0236822Y0076069D01*
X0237244Y0077089D01*
X0237666Y0076069D01*
X0239185Y0074550D01*
X0241170Y0073728D01*
X0243318Y0073728D01*
X0245303Y0074550D01*
X0246822Y0076069D01*
X0247244Y0077089D01*
X0247666Y0076069D01*
X0249185Y0074550D01*
X0251170Y0073728D01*
X0253318Y0073728D01*
X0255303Y0074550D01*
X0256822Y0076069D01*
X0257644Y0078054D01*
X0257644Y0085402D01*
X0256822Y0087387D01*
X0256644Y0087565D01*
X0256644Y0096781D01*
X0255974Y0098398D01*
X0245350Y0109023D01*
X0245350Y0142973D01*
X0246121Y0143745D01*
X0247050Y0145987D01*
X0247050Y0148413D01*
X0246121Y0150655D01*
X0244405Y0152371D01*
X0242163Y0153300D01*
X0239737Y0153300D01*
X0237850Y0152519D01*
X0237850Y0177877D01*
X0241523Y0181550D01*
X0244874Y0181550D01*
X0243526Y0180202D01*
X0243526Y0178214D01*
X0248325Y0178214D01*
X0248325Y0178214D01*
X0243526Y0178214D01*
X0243526Y0176226D01*
X0246137Y0173614D01*
X0246089Y0173614D01*
X0242926Y0170451D01*
X0242926Y0165977D01*
X0246089Y0162814D01*
X0248431Y0162814D01*
X0248464Y0162800D01*
X0250300Y0162800D01*
X0250300Y0160559D01*
X0249284Y0159543D01*
X0249284Y0158490D01*
X0249156Y0158182D01*
X0249156Y0156431D01*
X0249284Y0156122D01*
X0249284Y0155070D01*
X0252448Y0151906D01*
X0256921Y0151906D01*
X0260084Y0155070D01*
X0260084Y0156557D01*
X0267247Y0149568D01*
X0267165Y0042612D01*
X0266639Y0042916D01*
X0263714Y0043699D01*
X0260686Y0043699D01*
X0257761Y0042916D01*
X0255139Y0041402D01*
X0252998Y0039261D01*
X0252850Y0039004D01*
X0252850Y0039127D01*
X0255974Y0042252D01*
X0256644Y0043869D01*
X0256644Y0045892D01*
X0256822Y0046069D01*
X0257644Y0048054D01*
X0257644Y0055402D01*
X0256822Y0057387D01*
X0255303Y0058906D01*
X0253318Y0059728D01*
X0251170Y0059728D01*
X0249185Y0058906D01*
X0247666Y0057387D01*
X0247244Y0056368D01*
X0246822Y0057387D01*
X0245303Y0058906D01*
X0243318Y0059728D01*
X0241170Y0059728D01*
X0239185Y0058906D01*
X0237666Y0057387D01*
X0237244Y0056368D01*
X0236822Y0057387D01*
X0235303Y0058906D01*
X0233318Y0059728D01*
X0231170Y0059728D01*
X0229185Y0058906D01*
X0227666Y0057387D01*
X0227244Y0056368D01*
X0226822Y0057387D01*
X0225303Y0058906D01*
X0223318Y0059728D01*
X0221170Y0059728D01*
X0219185Y0058906D01*
X0217666Y0057387D01*
X0217244Y0056368D01*
X0216822Y0057387D01*
X0215303Y0058906D01*
X0213318Y0059728D01*
X0211170Y0059728D01*
X0209185Y0058906D01*
X0207666Y0057387D01*
X0207244Y0056368D01*
X0206822Y0057387D01*
X0205303Y0058906D01*
X0203318Y0059728D01*
X0201170Y0059728D01*
X0199185Y0058906D01*
X0197666Y0057387D01*
X0196899Y0055535D01*
X0196692Y0056171D01*
X0196349Y0056844D01*
X0195905Y0057455D01*
X0195371Y0057990D01*
X0194760Y0058434D01*
X0194087Y0058777D01*
X0193368Y0059010D01*
X0192622Y0059128D01*
X0192244Y0059128D01*
X0192244Y0051728D01*
X0192244Y0051728D01*
X0192244Y0052569D02*
X0192244Y0052569D01*
X0192244Y0054967D02*
X0192244Y0054967D01*
X0192244Y0057366D02*
X0192244Y0057366D01*
X0195970Y0057366D02*
X0197657Y0057366D01*
X0206831Y0057366D02*
X0207657Y0057366D01*
X0216831Y0057366D02*
X0217657Y0057366D01*
X0226831Y0057366D02*
X0227657Y0057366D01*
X0236831Y0057366D02*
X0237657Y0057366D01*
X0246831Y0057366D02*
X0247657Y0057366D01*
X0256831Y0057366D02*
X0267176Y0057366D01*
X0267178Y0059764D02*
X0178487Y0059764D01*
X0177657Y0057366D02*
X0176831Y0057366D01*
X0167657Y0057366D02*
X0166831Y0057366D01*
X0167844Y0059764D02*
X0146418Y0059764D01*
X0146831Y0057366D02*
X0147657Y0057366D01*
X0144710Y0062163D02*
X0168483Y0062163D01*
X0170839Y0064561D02*
X0142311Y0064561D01*
X0139913Y0066960D02*
X0173237Y0066960D01*
X0174349Y0074155D02*
X0190139Y0074155D01*
X0187466Y0076554D02*
X0186307Y0076554D01*
X0182244Y0076554D02*
X0182244Y0076554D01*
X0182244Y0078952D02*
X0182244Y0078952D01*
X0182244Y0081351D02*
X0182244Y0081351D01*
X0182244Y0081728D02*
X0182244Y0089128D01*
X0181866Y0089128D01*
X0181120Y0089010D01*
X0180402Y0088777D01*
X0179728Y0088434D01*
X0179117Y0087990D01*
X0178583Y0087455D01*
X0178139Y0086844D01*
X0177796Y0086171D01*
X0177589Y0085535D01*
X0176822Y0087387D01*
X0176644Y0087565D01*
X0176644Y0094172D01*
X0179692Y0097220D01*
X0180930Y0098458D01*
X0181600Y0100075D01*
X0181600Y0102555D01*
X0182213Y0104034D01*
X0182213Y0110423D01*
X0181613Y0111871D01*
X0181613Y0116685D01*
X0181600Y0116715D01*
X0181600Y0116841D01*
X0181599Y0116844D01*
X0181599Y0116847D01*
X0181263Y0117655D01*
X0180930Y0118458D01*
X0180928Y0118460D01*
X0180927Y0118464D01*
X0180309Y0119079D01*
X0179692Y0119696D01*
X0179689Y0119697D01*
X0179687Y0119699D01*
X0179446Y0119799D01*
X0177570Y0121675D01*
X0177570Y0123089D01*
X0174407Y0126252D01*
X0174358Y0126252D01*
X0176970Y0128864D01*
X0176970Y0130852D01*
X0172170Y0130852D01*
X0167370Y0130852D01*
X0167370Y0128864D01*
X0169982Y0126252D01*
X0169933Y0126252D01*
X0167207Y0123526D01*
X0164481Y0126252D01*
X0164432Y0126252D01*
X0167044Y0128864D01*
X0167044Y0130852D01*
X0162244Y0130852D01*
X0162244Y0130852D01*
X0167044Y0130852D01*
X0167044Y0132841D01*
X0164304Y0135581D01*
X0197192Y0168470D01*
X0197844Y0169122D01*
X0197844Y0108750D01*
X0195913Y0109550D01*
X0193487Y0109550D01*
X0191245Y0108621D01*
X0189529Y0106905D01*
X0188600Y0104663D01*
X0188600Y0103573D01*
X0188470Y0103442D01*
X0187800Y0101825D01*
X0187800Y0087521D01*
X0187666Y0087387D01*
X0186899Y0085535D01*
X0186692Y0086171D01*
X0186349Y0086844D01*
X0185905Y0087455D01*
X0185371Y0087990D01*
X0184760Y0088434D01*
X0184087Y0088777D01*
X0183368Y0089010D01*
X0182622Y0089128D01*
X0182244Y0089128D01*
X0182244Y0081728D01*
X0182244Y0081728D01*
X0182244Y0083749D02*
X0182244Y0083749D01*
X0182244Y0086148D02*
X0182244Y0086148D01*
X0182244Y0088546D02*
X0182244Y0088546D01*
X0179950Y0088546D02*
X0176644Y0088546D01*
X0176644Y0090945D02*
X0187800Y0090945D01*
X0187800Y0093343D02*
X0176644Y0093343D01*
X0178214Y0095742D02*
X0187800Y0095742D01*
X0187800Y0098140D02*
X0180613Y0098140D01*
X0181600Y0100539D02*
X0187800Y0100539D01*
X0188261Y0102937D02*
X0181758Y0102937D01*
X0182213Y0105336D02*
X0188879Y0105336D01*
X0190358Y0107734D02*
X0182213Y0107734D01*
X0182213Y0110133D02*
X0197844Y0110133D01*
X0197844Y0112532D02*
X0181613Y0112532D01*
X0181613Y0114930D02*
X0197844Y0114930D01*
X0197844Y0117329D02*
X0181399Y0117329D01*
X0179620Y0119727D02*
X0197844Y0119727D01*
X0197844Y0122126D02*
X0177570Y0122126D01*
X0176135Y0124524D02*
X0197844Y0124524D01*
X0197844Y0126923D02*
X0175029Y0126923D01*
X0176970Y0129321D02*
X0197844Y0129321D01*
X0197844Y0131720D02*
X0176970Y0131720D01*
X0176970Y0130852D02*
X0176970Y0132841D01*
X0174158Y0135652D01*
X0172170Y0135652D01*
X0170182Y0135652D01*
X0167370Y0132841D01*
X0167370Y0130852D01*
X0172170Y0130852D01*
X0172170Y0130852D01*
X0172170Y0130852D01*
X0176970Y0130852D01*
X0175693Y0134118D02*
X0197844Y0134118D01*
X0197844Y0136517D02*
X0165239Y0136517D01*
X0165767Y0134118D02*
X0168648Y0134118D01*
X0167370Y0131720D02*
X0167044Y0131720D01*
X0167044Y0129321D02*
X0167370Y0129321D01*
X0169312Y0126923D02*
X0165103Y0126923D01*
X0166209Y0124524D02*
X0168205Y0124524D01*
X0172170Y0130852D02*
X0172170Y0135652D01*
X0172170Y0130852D01*
X0172170Y0130852D01*
X0172170Y0131720D02*
X0172170Y0131720D01*
X0172170Y0134118D02*
X0172170Y0134118D01*
X0167638Y0138915D02*
X0197844Y0138915D01*
X0197844Y0141314D02*
X0170036Y0141314D01*
X0172435Y0143712D02*
X0197844Y0143712D01*
X0197844Y0146111D02*
X0174833Y0146111D01*
X0177232Y0148509D02*
X0197844Y0148509D01*
X0197844Y0150908D02*
X0179630Y0150908D01*
X0182029Y0153306D02*
X0197844Y0153306D01*
X0197844Y0155705D02*
X0184427Y0155705D01*
X0186826Y0158103D02*
X0197844Y0158103D01*
X0197844Y0160502D02*
X0189224Y0160502D01*
X0191623Y0162900D02*
X0197844Y0162900D01*
X0197844Y0165299D02*
X0194021Y0165299D01*
X0196420Y0167697D02*
X0197844Y0167697D01*
X0237850Y0167697D02*
X0242926Y0167697D01*
X0242926Y0170096D02*
X0237850Y0170096D01*
X0237850Y0172494D02*
X0244969Y0172494D01*
X0244858Y0174893D02*
X0237850Y0174893D01*
X0237850Y0177291D02*
X0243526Y0177291D01*
X0243526Y0179690D02*
X0239662Y0179690D01*
X0248326Y0178214D02*
X0253126Y0178214D01*
X0253126Y0180202D01*
X0250400Y0182928D01*
X0254692Y0187220D01*
X0255930Y0188458D01*
X0256600Y0190075D01*
X0256600Y0195598D01*
X0256825Y0195822D01*
X0257000Y0196245D01*
X0257000Y0169873D01*
X0255942Y0170930D01*
X0254325Y0171600D01*
X0252576Y0171600D01*
X0250562Y0173614D01*
X0250514Y0173614D01*
X0253126Y0176226D01*
X0253126Y0178214D01*
X0248326Y0178214D01*
X0248326Y0178214D01*
X0251239Y0182088D02*
X0257000Y0182088D01*
X0257000Y0179690D02*
X0253126Y0179690D01*
X0253126Y0177291D02*
X0257000Y0177291D01*
X0257000Y0174893D02*
X0251793Y0174893D01*
X0251682Y0172494D02*
X0257000Y0172494D01*
X0257000Y0170096D02*
X0256777Y0170096D01*
X0246002Y0162900D02*
X0237850Y0162900D01*
X0237850Y0160502D02*
X0250243Y0160502D01*
X0249156Y0158103D02*
X0237850Y0158103D01*
X0237850Y0155705D02*
X0249284Y0155705D01*
X0251048Y0153306D02*
X0237850Y0153306D01*
X0245869Y0150908D02*
X0265875Y0150908D01*
X0267246Y0148509D02*
X0247010Y0148509D01*
X0247050Y0146111D02*
X0267244Y0146111D01*
X0267243Y0143712D02*
X0246089Y0143712D01*
X0245350Y0141314D02*
X0267241Y0141314D01*
X0267239Y0138915D02*
X0245350Y0138915D01*
X0245350Y0136517D02*
X0267237Y0136517D01*
X0267235Y0134118D02*
X0245350Y0134118D01*
X0245350Y0131720D02*
X0267233Y0131720D01*
X0267232Y0129321D02*
X0245350Y0129321D01*
X0245350Y0126923D02*
X0267230Y0126923D01*
X0267228Y0124524D02*
X0245350Y0124524D01*
X0245350Y0122126D02*
X0251867Y0122126D01*
X0249468Y0119727D02*
X0245350Y0119727D01*
X0245350Y0117329D02*
X0249284Y0117329D01*
X0249424Y0114930D02*
X0245350Y0114930D01*
X0245350Y0112532D02*
X0250284Y0112532D01*
X0250284Y0110133D02*
X0245350Y0110133D01*
X0246638Y0107734D02*
X0250742Y0107734D01*
X0249037Y0105336D02*
X0252841Y0105336D01*
X0251435Y0102937D02*
X0254850Y0102937D01*
X0255553Y0100539D02*
X0253834Y0100539D01*
X0256081Y0098140D02*
X0257800Y0098140D01*
X0257800Y0095742D02*
X0256644Y0095742D01*
X0256644Y0093343D02*
X0257800Y0093343D01*
X0257800Y0090945D02*
X0256644Y0090945D01*
X0256644Y0088546D02*
X0257800Y0088546D01*
X0257800Y0086148D02*
X0257335Y0086148D01*
X0257644Y0083749D02*
X0257800Y0083749D01*
X0257800Y0081351D02*
X0257644Y0081351D01*
X0257644Y0078952D02*
X0257800Y0078952D01*
X0257800Y0076554D02*
X0257023Y0076554D01*
X0257800Y0074155D02*
X0254349Y0074155D01*
X0257800Y0071757D02*
X0120350Y0071757D01*
X0122514Y0069358D02*
X0256886Y0069358D01*
X0250139Y0074155D02*
X0244349Y0074155D01*
X0247023Y0076554D02*
X0247466Y0076554D01*
X0240139Y0074155D02*
X0234349Y0074155D01*
X0237023Y0076554D02*
X0237466Y0076554D01*
X0230139Y0074155D02*
X0224349Y0074155D01*
X0227023Y0076554D02*
X0227466Y0076554D01*
X0220139Y0074155D02*
X0214349Y0074155D01*
X0217023Y0076554D02*
X0217466Y0076554D01*
X0210139Y0074155D02*
X0204349Y0074155D01*
X0207023Y0076554D02*
X0207466Y0076554D01*
X0200139Y0074155D02*
X0194349Y0074155D01*
X0197023Y0076554D02*
X0197466Y0076554D01*
X0187153Y0086148D02*
X0186700Y0086148D01*
X0187800Y0088546D02*
X0184539Y0088546D01*
X0177788Y0086148D02*
X0177335Y0086148D01*
X0177023Y0076554D02*
X0178181Y0076554D01*
X0170139Y0074155D02*
X0164349Y0074155D01*
X0167023Y0076554D02*
X0167466Y0076554D01*
X0160139Y0074155D02*
X0154349Y0074155D01*
X0157023Y0076554D02*
X0157466Y0076554D01*
X0150139Y0074155D02*
X0144349Y0074155D01*
X0147023Y0076554D02*
X0147466Y0076554D01*
X0140139Y0074155D02*
X0134349Y0074155D01*
X0137023Y0076554D02*
X0137466Y0076554D01*
X0130139Y0074155D02*
X0124349Y0074155D01*
X0127023Y0076554D02*
X0127466Y0076554D01*
X0156831Y0057366D02*
X0157657Y0057366D01*
X0186831Y0057366D02*
X0188518Y0057366D01*
X0196850Y0047772D02*
X0196961Y0047772D01*
X0197844Y0045373D02*
X0195242Y0045373D01*
X0192244Y0045373D02*
X0192244Y0045373D01*
X0189174Y0035779D02*
X0188360Y0035779D01*
X0254299Y0040576D02*
X0254314Y0040576D01*
X0256274Y0042975D02*
X0257982Y0042975D01*
X0256644Y0045373D02*
X0267167Y0045373D01*
X0267165Y0042975D02*
X0266418Y0042975D01*
X0267169Y0047772D02*
X0257527Y0047772D01*
X0257644Y0050170D02*
X0267170Y0050170D01*
X0267172Y0052569D02*
X0257644Y0052569D01*
X0257644Y0054967D02*
X0267174Y0054967D01*
X0267180Y0062163D02*
X0262135Y0062163D01*
X0264534Y0064561D02*
X0267181Y0064561D01*
X0267183Y0066960D02*
X0266345Y0066960D01*
X0266600Y0069358D02*
X0267185Y0069358D01*
X0267187Y0071757D02*
X0266600Y0071757D01*
X0266600Y0074155D02*
X0267189Y0074155D01*
X0267191Y0076554D02*
X0266600Y0076554D01*
X0266600Y0078952D02*
X0267193Y0078952D01*
X0267194Y0081351D02*
X0266600Y0081351D01*
X0266600Y0083749D02*
X0267196Y0083749D01*
X0267198Y0086148D02*
X0266600Y0086148D01*
X0266600Y0088546D02*
X0267200Y0088546D01*
X0267202Y0090945D02*
X0266600Y0090945D01*
X0266600Y0093343D02*
X0267204Y0093343D01*
X0267206Y0095742D02*
X0266600Y0095742D01*
X0266600Y0098140D02*
X0267207Y0098140D01*
X0267209Y0100539D02*
X0266600Y0100539D01*
X0267050Y0102937D02*
X0267211Y0102937D01*
X0267213Y0105336D02*
X0266771Y0105336D01*
X0267215Y0107734D02*
X0265292Y0107734D01*
X0267217Y0110133D02*
X0260490Y0110133D01*
X0259084Y0112532D02*
X0267219Y0112532D01*
X0267220Y0114930D02*
X0259945Y0114930D01*
X0260084Y0117329D02*
X0267222Y0117329D01*
X0267224Y0119727D02*
X0259900Y0119727D01*
X0257502Y0122126D02*
X0267226Y0122126D01*
X0263416Y0153306D02*
X0258321Y0153306D01*
X0260084Y0155705D02*
X0260958Y0155705D01*
X0243604Y0165299D02*
X0237850Y0165299D01*
X0251959Y0184487D02*
X0257000Y0184487D01*
X0257000Y0186885D02*
X0254358Y0186885D01*
X0256272Y0189284D02*
X0257000Y0189284D01*
X0257000Y0191682D02*
X0256600Y0191682D01*
X0256600Y0194081D02*
X0257000Y0194081D01*
X0117800Y0171158D02*
X0117800Y0162773D01*
X0098458Y0143430D01*
X0097850Y0142823D01*
X0097850Y0149127D01*
X0100942Y0152220D01*
X0102180Y0153458D01*
X0102850Y0155075D01*
X0102850Y0165377D01*
X0104692Y0167220D01*
X0105930Y0168458D01*
X0106600Y0170075D01*
X0106600Y0171158D01*
X0107636Y0172194D01*
X0107700Y0172106D01*
X0108356Y0171450D01*
X0109108Y0170904D01*
X0109935Y0170482D01*
X0110818Y0170195D01*
X0111736Y0170050D01*
X0112200Y0170050D01*
X0112664Y0170050D01*
X0113582Y0170195D01*
X0114465Y0170482D01*
X0115292Y0170904D01*
X0116044Y0171450D01*
X0116700Y0172106D01*
X0116764Y0172194D01*
X0117800Y0171158D01*
X0117800Y0170096D02*
X0112953Y0170096D01*
X0112200Y0170096D02*
X0112200Y0170096D01*
X0112200Y0170050D02*
X0112200Y0175950D01*
X0112200Y0175950D01*
X0112200Y0170050D01*
X0111447Y0170096D02*
X0106600Y0170096D01*
X0105170Y0167697D02*
X0117800Y0167697D01*
X0117800Y0165299D02*
X0102850Y0165299D01*
X0102850Y0162900D02*
X0117800Y0162900D01*
X0115529Y0160502D02*
X0102850Y0160502D01*
X0102850Y0158103D02*
X0113131Y0158103D01*
X0110732Y0155705D02*
X0102850Y0155705D01*
X0102029Y0153306D02*
X0108334Y0153306D01*
X0105935Y0150908D02*
X0099630Y0150908D01*
X0097850Y0148509D02*
X0103537Y0148509D01*
X0101138Y0146111D02*
X0097850Y0146111D01*
X0097850Y0143712D02*
X0098740Y0143712D01*
X0067800Y0146573D02*
X0067180Y0147192D01*
X0065942Y0148430D01*
X0064325Y0149100D01*
X0063248Y0149100D01*
X0064176Y0151341D01*
X0064176Y0153847D01*
X0063217Y0156162D01*
X0061445Y0157935D01*
X0059129Y0158894D01*
X0057946Y0158894D01*
X0057877Y0158967D01*
X0057856Y0159016D01*
X0057274Y0159599D01*
X0056705Y0160195D01*
X0056656Y0160216D01*
X0053430Y0163442D01*
X0052192Y0164680D01*
X0050575Y0165350D01*
X0036523Y0165350D01*
X0025930Y0175942D01*
X0024692Y0177180D01*
X0023075Y0177850D01*
X0016722Y0177850D01*
X0015625Y0178947D01*
X0011152Y0178947D01*
X0007989Y0175784D01*
X0007989Y0171310D01*
X0011152Y0168147D01*
X0015625Y0168147D01*
X0016528Y0169050D01*
X0020377Y0169050D01*
X0032208Y0157220D01*
X0033825Y0156550D01*
X0043771Y0156550D01*
X0042176Y0154955D01*
X0042176Y0152594D01*
X0047876Y0152594D01*
X0047876Y0152594D01*
X0042176Y0152594D01*
X0042176Y0150233D01*
X0045515Y0146894D01*
X0047876Y0146894D01*
X0050237Y0146894D01*
X0052486Y0149143D01*
X0052535Y0149025D01*
X0053476Y0148084D01*
X0053476Y0146899D01*
X0054146Y0145282D01*
X0055384Y0144044D01*
X0057275Y0142152D01*
X0055779Y0140655D01*
X0055134Y0139100D01*
X0020742Y0139100D01*
X0019706Y0140136D01*
X0019794Y0140200D01*
X0020450Y0140856D01*
X0020996Y0141608D01*
X0021418Y0142435D01*
X0021705Y0143318D01*
X0021850Y0144236D01*
X0021850Y0144700D01*
X0021850Y0145164D01*
X0021705Y0146082D01*
X0021418Y0146965D01*
X0020996Y0147792D01*
X0020450Y0148544D01*
X0019794Y0149200D01*
X0019106Y0149700D01*
X0019794Y0150200D01*
X0020450Y0150856D01*
X0020996Y0151608D01*
X0021418Y0152435D01*
X0021705Y0153318D01*
X0021850Y0154236D01*
X0021850Y0154700D01*
X0021850Y0155164D01*
X0021705Y0156082D01*
X0021418Y0156965D01*
X0020996Y0157792D01*
X0020450Y0158544D01*
X0019794Y0159200D01*
X0019042Y0159746D01*
X0018215Y0160168D01*
X0017332Y0160455D01*
X0016414Y0160600D01*
X0015950Y0160600D01*
X0015950Y0154700D01*
X0015950Y0154700D01*
X0021850Y0154700D01*
X0015950Y0154700D01*
X0015950Y0154700D01*
X0015950Y0154700D01*
X0010050Y0154700D01*
X0010050Y0155164D01*
X0010195Y0156082D01*
X0010482Y0156965D01*
X0010904Y0157792D01*
X0011450Y0158544D01*
X0012106Y0159200D01*
X0012858Y0159746D01*
X0013685Y0160168D01*
X0014568Y0160455D01*
X0015486Y0160600D01*
X0015950Y0160600D01*
X0015950Y0154700D01*
X0015950Y0148800D01*
X0015950Y0144700D01*
X0021850Y0144700D01*
X0015950Y0144700D01*
X0015950Y0144700D01*
X0015950Y0144700D01*
X0015950Y0144700D01*
X0010050Y0144700D01*
X0010050Y0145164D01*
X0010195Y0146082D01*
X0010482Y0146965D01*
X0010904Y0147792D01*
X0011450Y0148544D01*
X0012106Y0149200D01*
X0012794Y0149700D01*
X0012106Y0150200D01*
X0011450Y0150856D01*
X0010904Y0151608D01*
X0010482Y0152435D01*
X0010195Y0153318D01*
X0010050Y0154236D01*
X0010050Y0154700D01*
X0015950Y0154700D01*
X0015950Y0154700D01*
X0015950Y0144700D01*
X0010050Y0144700D01*
X0010050Y0144236D01*
X0010195Y0143318D01*
X0010482Y0142435D01*
X0010904Y0141608D01*
X0011450Y0140856D01*
X0012106Y0140200D01*
X0012194Y0140136D01*
X0010440Y0138382D01*
X0009450Y0135993D01*
X0009450Y0133407D01*
X0010440Y0131018D01*
X0011758Y0129700D01*
X0010440Y0128382D01*
X0009450Y0125993D01*
X0009450Y0123407D01*
X0010440Y0121018D01*
X0011758Y0119700D01*
X0010440Y0118382D01*
X0009450Y0115993D01*
X0009450Y0113407D01*
X0010440Y0111018D01*
X0011758Y0109700D01*
X0010440Y0108382D01*
X0009450Y0105993D01*
X0009450Y0103407D01*
X0010440Y0101018D01*
X0011668Y0099789D01*
X0012220Y0098458D01*
X0020550Y0090127D01*
X0020550Y0088713D01*
X0023713Y0085550D01*
X0028187Y0085550D01*
X0030950Y0088313D01*
X0033713Y0085550D01*
X0038187Y0085550D01*
X0041350Y0088713D01*
X0041350Y0091985D01*
X0043487Y0091100D01*
X0045913Y0091100D01*
X0048155Y0092029D01*
X0049871Y0093745D01*
X0050475Y0095202D01*
X0052785Y0092892D01*
X0050915Y0092117D01*
X0049283Y0090485D01*
X0048400Y0088354D01*
X0048400Y0086046D01*
X0049283Y0083915D01*
X0050915Y0082283D01*
X0051912Y0081870D01*
X0051475Y0081647D01*
X0050812Y0081166D01*
X0050234Y0080588D01*
X0049753Y0079925D01*
X0049381Y0079196D01*
X0049128Y0078418D01*
X0049000Y0077609D01*
X0049000Y0077200D01*
X0057200Y0077200D01*
X0065400Y0077200D01*
X0065400Y0077609D01*
X0065272Y0078418D01*
X0065019Y0079196D01*
X0064798Y0079629D01*
X0067220Y0077208D01*
X0068458Y0075970D01*
X0070075Y0075300D01*
X0072800Y0075300D01*
X0072800Y0056580D01*
X0071321Y0057193D01*
X0070213Y0057193D01*
X0068626Y0057850D01*
X0041489Y0057850D01*
X0042689Y0059050D01*
X0044325Y0059050D01*
X0045942Y0059720D01*
X0047180Y0060958D01*
X0049023Y0062800D01*
X0050398Y0062800D01*
X0050915Y0062283D01*
X0053046Y0061400D01*
X0061354Y0061400D01*
X0063485Y0062283D01*
X0065117Y0063915D01*
X0066000Y0066046D01*
X0066000Y0068354D01*
X0065117Y0070485D01*
X0063485Y0072117D01*
X0062488Y0072530D01*
X0062925Y0072753D01*
X0063588Y0073234D01*
X0064166Y0073812D01*
X0064647Y0074475D01*
X0065019Y0075204D01*
X0065272Y0075982D01*
X0065400Y0076791D01*
X0065400Y0077200D01*
X0057200Y0077200D01*
X0057200Y0077200D01*
X0057200Y0077200D01*
X0049000Y0077200D01*
X0049000Y0076791D01*
X0049128Y0075982D01*
X0049381Y0075204D01*
X0049753Y0074475D01*
X0050234Y0073812D01*
X0050812Y0073234D01*
X0051475Y0072753D01*
X0051912Y0072530D01*
X0050915Y0072117D01*
X0050398Y0071600D01*
X0046325Y0071600D01*
X0044708Y0070930D01*
X0041627Y0067850D01*
X0040801Y0067850D01*
X0040745Y0067906D01*
X0040696Y0067906D01*
X0043308Y0070518D01*
X0043308Y0072506D01*
X0038508Y0072506D01*
X0033708Y0072506D01*
X0033708Y0070518D01*
X0036320Y0067906D01*
X0036272Y0067906D01*
X0035272Y0066906D01*
X0023241Y0066906D01*
X0022449Y0068818D01*
X0020677Y0070590D01*
X0020559Y0070639D01*
X0022808Y0072889D01*
X0022808Y0075250D01*
X0022808Y0077611D01*
X0019469Y0080950D01*
X0017108Y0080950D01*
X0017108Y0075250D01*
X0017108Y0075250D01*
X0017108Y0080950D01*
X0014747Y0080950D01*
X0011408Y0077611D01*
X0011408Y0075250D01*
X0017108Y0075250D01*
X0022808Y0075250D01*
X0017108Y0075250D01*
X0017108Y0075250D01*
X0017108Y0075250D01*
X0011408Y0075250D01*
X0011408Y0072889D01*
X0013657Y0070639D01*
X0013539Y0070590D01*
X0011767Y0068818D01*
X0010808Y0066503D01*
X0010808Y0063996D01*
X0011767Y0061681D01*
X0012708Y0060740D01*
X0012708Y0053917D01*
X0013378Y0052300D01*
X0014615Y0051062D01*
X0015958Y0049720D01*
X0017575Y0049050D01*
X0024204Y0049050D01*
X0019400Y0044246D01*
X0019400Y0040600D01*
X0029900Y0040600D01*
X0029900Y0038200D01*
X0032300Y0038200D01*
X0032300Y0027700D01*
X0034354Y0027700D01*
X0031200Y0024546D01*
X0031200Y0020900D01*
X0041700Y0020900D01*
X0041700Y0031400D01*
X0039646Y0031400D01*
X0042476Y0034229D01*
X0045305Y0031400D01*
X0044100Y0031400D01*
X0044100Y0020900D01*
X0054600Y0020900D01*
X0054600Y0024546D01*
X0052046Y0027100D01*
X0053577Y0027100D01*
X0055300Y0025377D01*
X0055300Y0018028D01*
X0055283Y0017984D01*
X0055300Y0017154D01*
X0055300Y0016325D01*
X0055318Y0016281D01*
X0055319Y0016234D01*
X0055652Y0015474D01*
X0055970Y0014708D01*
X0056003Y0014674D01*
X0056022Y0014631D01*
X0056621Y0014057D01*
X0057208Y0013470D01*
X0057251Y0013452D01*
X0062564Y0008356D01*
X0062579Y0008323D01*
X0063194Y0007751D01*
X0063438Y0007517D01*
X0006888Y0007554D01*
X0006888Y0207355D01*
X0012140Y0207352D01*
X0011756Y0206823D01*
X0011384Y0206093D01*
X0011131Y0205315D01*
X0011003Y0204506D01*
X0011003Y0204097D01*
X0011003Y0203688D01*
X0011131Y0202880D01*
X0011384Y0202101D01*
X0011756Y0201372D01*
X0012237Y0200710D01*
X0012816Y0200131D01*
X0013478Y0199650D01*
X0014207Y0199278D01*
X0014985Y0199025D01*
X0015794Y0198897D01*
X0019203Y0198897D01*
X0019203Y0204097D01*
X0019203Y0204097D01*
X0011003Y0204097D01*
X0019203Y0204097D01*
X0019203Y0204097D01*
X0019203Y0198897D01*
X0022612Y0198897D01*
X0023421Y0199025D01*
X0024199Y0199278D01*
X0024929Y0199650D01*
X0025591Y0200131D01*
X0026169Y0200710D01*
X0026651Y0201372D01*
X0027022Y0202101D01*
X0027275Y0202880D01*
X0027403Y0203688D01*
X0027403Y0204097D01*
X0019203Y0204097D01*
X0019203Y0204097D01*
X0027403Y0204097D01*
X0027403Y0204506D01*
X0027275Y0205315D01*
X0027022Y0206093D01*
X0026651Y0206823D01*
X0026273Y0207343D01*
X0037729Y0207336D01*
X0037356Y0206823D01*
X0036984Y0206093D01*
X0036731Y0205315D01*
X0036603Y0204506D01*
X0036603Y0204097D01*
X0036603Y0203688D01*
X0036731Y0202880D01*
X0036984Y0202101D01*
X0037356Y0201372D01*
X0037837Y0200710D01*
X0038416Y0200131D01*
X0039078Y0199650D01*
X0039807Y0199278D01*
X0040585Y0199025D01*
X0041394Y0198897D01*
X0044803Y0198897D01*
X0044803Y0204097D01*
X0044803Y0204097D01*
X0036603Y0204097D01*
X0044803Y0204097D01*
X0044803Y0204097D01*
X0044803Y0198897D01*
X0048212Y0198897D01*
X0049021Y0199025D01*
X0049799Y0199278D01*
X0050529Y0199650D01*
X0051191Y0200131D01*
X0051769Y0200710D01*
X0052251Y0201372D01*
X0052622Y0202101D01*
X0052875Y0202880D01*
X0053003Y0203688D01*
X0053003Y0204097D01*
X0044803Y0204097D01*
X0044803Y0204097D01*
X0053003Y0204097D01*
X0053003Y0204506D01*
X0052875Y0205315D01*
X0052622Y0206093D01*
X0052251Y0206823D01*
X0051884Y0207327D01*
X0090484Y0207303D01*
X0090222Y0206672D01*
X0088896Y0206672D01*
X0087279Y0206002D01*
X0084708Y0203430D01*
X0083470Y0202192D01*
X0082800Y0200575D01*
X0082800Y0197677D01*
X0082029Y0196905D01*
X0081100Y0194663D01*
X0081100Y0192237D01*
X0082029Y0189995D01*
X0083745Y0188279D01*
X0085987Y0187350D01*
X0088413Y0187350D01*
X0090655Y0188279D01*
X0092371Y0189995D01*
X0093300Y0192237D01*
X0093300Y0194079D01*
X0094767Y0193472D01*
X0097074Y0193472D01*
X0099206Y0194355D01*
X0100837Y0195986D01*
X0101250Y0196983D01*
X0101473Y0196546D01*
X0101954Y0195884D01*
X0102533Y0195305D01*
X0103195Y0194824D01*
X0103924Y0194453D01*
X0104703Y0194200D01*
X0105511Y0194072D01*
X0105920Y0194072D01*
X0105920Y0202272D01*
X0105921Y0202272D01*
X0105921Y0194072D01*
X0106330Y0194072D01*
X0107138Y0194200D01*
X0107917Y0194453D01*
X0108646Y0194824D01*
X0109308Y0195305D01*
X0109887Y0195884D01*
X0110368Y0196546D01*
X0110591Y0196983D01*
X0111003Y0195986D01*
X0111520Y0195469D01*
X0111520Y0193993D01*
X0109127Y0191600D01*
X0101325Y0191600D01*
X0099708Y0190930D01*
X0098470Y0189692D01*
X0091227Y0182450D01*
X0090907Y0182450D01*
X0088518Y0181460D01*
X0087200Y0180142D01*
X0085882Y0181460D01*
X0083493Y0182450D01*
X0081923Y0182450D01*
X0068430Y0195942D01*
X0068430Y0195942D01*
X0067192Y0197180D01*
X0065575Y0197850D01*
X0056325Y0197850D01*
X0054708Y0197180D01*
X0049429Y0191902D01*
X0048957Y0192097D01*
X0040649Y0192097D01*
X0038518Y0191214D01*
X0038001Y0190697D01*
X0026006Y0190697D01*
X0025489Y0191214D01*
X0023357Y0192097D01*
X0015049Y0192097D01*
X0012918Y0191214D01*
X0011286Y0189583D01*
X0010403Y0187451D01*
X0010403Y0185144D01*
X0011286Y0183012D01*
X0012918Y0181380D01*
X0015049Y0180497D01*
X0023357Y0180497D01*
X0025489Y0181380D01*
X0026006Y0181897D01*
X0038001Y0181897D01*
X0038518Y0181380D01*
X0040300Y0180642D01*
X0040300Y0176325D01*
X0040970Y0174708D01*
X0044623Y0171054D01*
X0045861Y0169817D01*
X0047478Y0169147D01*
X0050152Y0169147D01*
X0051152Y0168147D01*
X0055625Y0168147D01*
X0058789Y0171310D01*
X0058789Y0175784D01*
X0055625Y0178947D01*
X0051152Y0178947D01*
X0050164Y0177959D01*
X0049100Y0179023D01*
X0049100Y0180557D01*
X0051089Y0181380D01*
X0052089Y0182380D01*
X0052540Y0182567D01*
X0053777Y0183805D01*
X0055175Y0185202D01*
X0055779Y0183745D01*
X0057495Y0182029D01*
X0059737Y0181100D01*
X0062077Y0181100D01*
X0065769Y0177409D01*
X0065700Y0177243D01*
X0065700Y0174657D01*
X0066690Y0172268D01*
X0067800Y0171158D01*
X0067800Y0146573D01*
X0067800Y0148509D02*
X0065752Y0148509D01*
X0063997Y0150908D02*
X0067800Y0150908D01*
X0067800Y0153306D02*
X0064176Y0153306D01*
X0063406Y0155705D02*
X0067800Y0155705D01*
X0067800Y0158103D02*
X0061037Y0158103D01*
X0056371Y0160502D02*
X0067800Y0160502D01*
X0067800Y0162900D02*
X0053972Y0162900D01*
X0050699Y0165299D02*
X0067800Y0165299D01*
X0067800Y0167697D02*
X0034175Y0167697D01*
X0031777Y0170096D02*
X0045582Y0170096D01*
X0044623Y0171054D02*
X0044623Y0171054D01*
X0043183Y0172494D02*
X0029378Y0172494D01*
X0026980Y0174893D02*
X0040893Y0174893D01*
X0040300Y0177291D02*
X0024424Y0177291D01*
X0021730Y0167697D02*
X0006888Y0167697D01*
X0006888Y0165299D02*
X0024129Y0165299D01*
X0026527Y0162900D02*
X0006888Y0162900D01*
X0006888Y0160502D02*
X0014865Y0160502D01*
X0015950Y0160502D02*
X0015950Y0160502D01*
X0017035Y0160502D02*
X0028926Y0160502D01*
X0031324Y0158103D02*
X0020770Y0158103D01*
X0021764Y0155705D02*
X0042926Y0155705D01*
X0042176Y0153306D02*
X0021701Y0153306D01*
X0020488Y0150908D02*
X0042176Y0150908D01*
X0043899Y0148509D02*
X0020475Y0148509D01*
X0021695Y0146111D02*
X0053802Y0146111D01*
X0053051Y0148509D02*
X0051852Y0148509D01*
X0047876Y0148509D02*
X0047876Y0148509D01*
X0047876Y0146894D02*
X0047876Y0152594D01*
X0047876Y0152594D01*
X0047876Y0146894D01*
X0047876Y0150908D02*
X0047876Y0150908D01*
X0055715Y0143712D02*
X0021767Y0143712D01*
X0020782Y0141314D02*
X0056437Y0141314D01*
X0057574Y0170096D02*
X0067800Y0170096D01*
X0066596Y0172494D02*
X0058789Y0172494D01*
X0058789Y0174893D02*
X0065700Y0174893D01*
X0065720Y0177291D02*
X0057281Y0177291D01*
X0057435Y0182088D02*
X0051797Y0182088D01*
X0049100Y0179690D02*
X0063488Y0179690D01*
X0055471Y0184487D02*
X0054459Y0184487D01*
X0051608Y0194081D02*
X0006888Y0194081D01*
X0006888Y0196479D02*
X0054007Y0196479D01*
X0052181Y0201276D02*
X0083090Y0201276D01*
X0082800Y0198878D02*
X0006888Y0198878D01*
X0006888Y0201276D02*
X0011825Y0201276D01*
X0011005Y0203675D02*
X0006888Y0203675D01*
X0006888Y0206073D02*
X0011378Y0206073D01*
X0019203Y0203675D02*
X0019203Y0203675D01*
X0019203Y0201276D02*
X0019203Y0201276D01*
X0026581Y0201276D02*
X0037425Y0201276D01*
X0036605Y0203675D02*
X0027401Y0203675D01*
X0027029Y0206073D02*
X0036978Y0206073D01*
X0044803Y0203675D02*
X0044803Y0203675D01*
X0044803Y0201276D02*
X0044803Y0201276D01*
X0053001Y0203675D02*
X0084952Y0203675D01*
X0087452Y0206073D02*
X0052629Y0206073D01*
X0067893Y0196479D02*
X0081852Y0196479D01*
X0081100Y0194081D02*
X0070292Y0194081D01*
X0072690Y0191682D02*
X0081330Y0191682D01*
X0082739Y0189284D02*
X0075089Y0189284D01*
X0077487Y0186885D02*
X0095663Y0186885D01*
X0093264Y0184487D02*
X0079886Y0184487D01*
X0084366Y0182088D02*
X0090034Y0182088D01*
X0091661Y0189284D02*
X0098061Y0189284D01*
X0098545Y0194081D02*
X0105453Y0194081D01*
X0105920Y0194081D02*
X0105921Y0194081D01*
X0106388Y0194081D02*
X0111520Y0194081D01*
X0110799Y0196479D02*
X0110319Y0196479D01*
X0105921Y0196479D02*
X0105920Y0196479D01*
X0105920Y0198878D02*
X0105921Y0198878D01*
X0105920Y0201276D02*
X0105921Y0201276D01*
X0101522Y0196479D02*
X0101042Y0196479D01*
X0093070Y0191682D02*
X0109210Y0191682D01*
X0112200Y0174893D02*
X0112200Y0174893D01*
X0112200Y0172494D02*
X0112200Y0172494D01*
X0040300Y0179690D02*
X0006888Y0179690D01*
X0006888Y0182088D02*
X0012210Y0182088D01*
X0010675Y0184487D02*
X0006888Y0184487D01*
X0006888Y0186885D02*
X0010403Y0186885D01*
X0011162Y0189284D02*
X0006888Y0189284D01*
X0006888Y0191682D02*
X0014048Y0191682D01*
X0024358Y0191682D02*
X0039648Y0191682D01*
X0009496Y0177291D02*
X0006888Y0177291D01*
X0006888Y0174893D02*
X0007989Y0174893D01*
X0007989Y0172494D02*
X0006888Y0172494D01*
X0006888Y0170096D02*
X0009203Y0170096D01*
X0011130Y0158103D02*
X0006888Y0158103D01*
X0006888Y0155705D02*
X0010136Y0155705D01*
X0010199Y0153306D02*
X0006888Y0153306D01*
X0006888Y0150908D02*
X0011412Y0150908D01*
X0011425Y0148509D02*
X0006888Y0148509D01*
X0006888Y0146111D02*
X0010205Y0146111D01*
X0010133Y0143712D02*
X0006888Y0143712D01*
X0006888Y0141314D02*
X0011118Y0141314D01*
X0010973Y0138915D02*
X0006888Y0138915D01*
X0006888Y0136517D02*
X0009667Y0136517D01*
X0009450Y0134118D02*
X0006888Y0134118D01*
X0006888Y0131720D02*
X0010149Y0131720D01*
X0011379Y0129321D02*
X0006888Y0129321D01*
X0006888Y0126923D02*
X0009835Y0126923D01*
X0009450Y0124524D02*
X0006888Y0124524D01*
X0006888Y0122126D02*
X0009981Y0122126D01*
X0011731Y0119727D02*
X0006888Y0119727D01*
X0006888Y0117329D02*
X0010003Y0117329D01*
X0009450Y0114930D02*
X0006888Y0114930D01*
X0006888Y0112532D02*
X0009813Y0112532D01*
X0011325Y0110133D02*
X0006888Y0110133D01*
X0006888Y0107734D02*
X0010171Y0107734D01*
X0009450Y0105336D02*
X0006888Y0105336D01*
X0006888Y0102937D02*
X0009645Y0102937D01*
X0010919Y0100539D02*
X0006888Y0100539D01*
X0006888Y0098140D02*
X0012537Y0098140D01*
X0014936Y0095742D02*
X0006888Y0095742D01*
X0006888Y0093343D02*
X0017334Y0093343D01*
X0019733Y0090945D02*
X0006888Y0090945D01*
X0006888Y0088546D02*
X0020717Y0088546D01*
X0023115Y0086148D02*
X0006888Y0086148D01*
X0006888Y0083749D02*
X0049448Y0083749D01*
X0048400Y0086148D02*
X0038785Y0086148D01*
X0041183Y0088546D02*
X0048480Y0088546D01*
X0049742Y0090945D02*
X0041350Y0090945D01*
X0049470Y0093343D02*
X0052334Y0093343D01*
X0051066Y0081351D02*
X0006888Y0081351D01*
X0006888Y0078952D02*
X0012750Y0078952D01*
X0011408Y0076554D02*
X0006888Y0076554D01*
X0006888Y0074155D02*
X0011408Y0074155D01*
X0012540Y0071757D02*
X0006888Y0071757D01*
X0006888Y0069358D02*
X0012307Y0069358D01*
X0010997Y0066960D02*
X0006888Y0066960D01*
X0006888Y0064561D02*
X0010808Y0064561D01*
X0011567Y0062163D02*
X0006888Y0062163D01*
X0006888Y0059764D02*
X0012708Y0059764D01*
X0012708Y0057366D02*
X0006888Y0057366D01*
X0006888Y0054967D02*
X0012708Y0054967D01*
X0013266Y0052569D02*
X0006888Y0052569D01*
X0006888Y0050170D02*
X0015507Y0050170D01*
X0020527Y0045373D02*
X0006888Y0045373D01*
X0006888Y0042975D02*
X0019400Y0042975D01*
X0022925Y0047772D02*
X0006888Y0047772D01*
X0006888Y0040576D02*
X0029900Y0040576D01*
X0029900Y0038200D02*
X0019400Y0038200D01*
X0019400Y0034554D01*
X0026254Y0027700D01*
X0029900Y0027700D01*
X0029900Y0038200D01*
X0029900Y0038178D02*
X0032300Y0038178D01*
X0032300Y0035779D02*
X0029900Y0035779D01*
X0029900Y0033381D02*
X0032300Y0033381D01*
X0032300Y0030982D02*
X0029900Y0030982D01*
X0029900Y0028584D02*
X0032300Y0028584D01*
X0032839Y0026185D02*
X0006888Y0026185D01*
X0006888Y0023787D02*
X0031200Y0023787D01*
X0031200Y0021388D02*
X0006888Y0021388D01*
X0006888Y0018990D02*
X0041700Y0018990D01*
X0041700Y0018500D02*
X0031200Y0018500D01*
X0031200Y0014854D01*
X0038054Y0008000D01*
X0041700Y0008000D01*
X0041700Y0018500D01*
X0044100Y0018500D01*
X0044100Y0020900D01*
X0041700Y0020900D01*
X0041700Y0018500D01*
X0041700Y0016591D02*
X0044100Y0016591D01*
X0044100Y0018500D02*
X0044100Y0008000D01*
X0047746Y0008000D01*
X0054600Y0014854D01*
X0054600Y0018500D01*
X0044100Y0018500D01*
X0044100Y0018990D02*
X0055300Y0018990D01*
X0055300Y0021388D02*
X0054600Y0021388D01*
X0054600Y0023787D02*
X0055300Y0023787D01*
X0054492Y0026185D02*
X0052961Y0026185D01*
X0044100Y0026185D02*
X0041700Y0026185D01*
X0041700Y0023787D02*
X0044100Y0023787D01*
X0044100Y0021388D02*
X0041700Y0021388D01*
X0041700Y0014193D02*
X0044100Y0014193D01*
X0044100Y0011794D02*
X0041700Y0011794D01*
X0041700Y0009396D02*
X0044100Y0009396D01*
X0049142Y0009396D02*
X0061480Y0009396D01*
X0058979Y0011794D02*
X0051540Y0011794D01*
X0053939Y0014193D02*
X0056479Y0014193D01*
X0055300Y0016591D02*
X0054600Y0016591D01*
X0044100Y0028584D02*
X0041700Y0028584D01*
X0041700Y0030982D02*
X0044100Y0030982D01*
X0043325Y0033381D02*
X0041627Y0033381D01*
X0025370Y0028584D02*
X0006888Y0028584D01*
X0006888Y0030982D02*
X0022972Y0030982D01*
X0020573Y0033381D02*
X0006888Y0033381D01*
X0006888Y0035779D02*
X0019400Y0035779D01*
X0019400Y0038178D02*
X0006888Y0038178D01*
X0006888Y0016591D02*
X0031200Y0016591D01*
X0031861Y0014193D02*
X0006888Y0014193D01*
X0006888Y0011794D02*
X0034260Y0011794D01*
X0036658Y0009396D02*
X0006888Y0009396D01*
X0045987Y0059764D02*
X0072800Y0059764D01*
X0072800Y0057366D02*
X0069795Y0057366D01*
X0072800Y0062163D02*
X0063195Y0062163D01*
X0065385Y0064561D02*
X0072800Y0064561D01*
X0072800Y0066960D02*
X0066000Y0066960D01*
X0065584Y0069358D02*
X0072800Y0069358D01*
X0072800Y0071757D02*
X0063846Y0071757D01*
X0064415Y0074155D02*
X0072800Y0074155D01*
X0067874Y0076554D02*
X0065362Y0076554D01*
X0065475Y0078952D02*
X0065098Y0078952D01*
X0049985Y0074155D02*
X0043308Y0074155D01*
X0043308Y0074495D02*
X0040496Y0077306D01*
X0038508Y0077306D01*
X0036520Y0077306D01*
X0033708Y0074495D01*
X0033708Y0072506D01*
X0038508Y0072506D01*
X0038508Y0072506D01*
X0038508Y0072506D01*
X0038508Y0077306D01*
X0038508Y0072506D01*
X0038508Y0072506D01*
X0043308Y0072506D01*
X0043308Y0074495D01*
X0043308Y0071757D02*
X0050554Y0071757D01*
X0049038Y0076554D02*
X0041249Y0076554D01*
X0038508Y0076554D02*
X0038508Y0076554D01*
X0038508Y0074155D02*
X0038508Y0074155D01*
X0035768Y0076554D02*
X0022808Y0076554D01*
X0022808Y0074155D02*
X0033708Y0074155D01*
X0033708Y0071757D02*
X0021676Y0071757D01*
X0021909Y0069358D02*
X0034868Y0069358D01*
X0035325Y0066960D02*
X0023219Y0066960D01*
X0017108Y0076554D02*
X0017108Y0076554D01*
X0017108Y0078952D02*
X0017108Y0078952D01*
X0021466Y0078952D02*
X0049302Y0078952D01*
X0043136Y0069358D02*
X0042148Y0069358D01*
X0048385Y0062163D02*
X0051205Y0062163D01*
X0033115Y0086148D02*
X0028785Y0086148D01*
X0015950Y0146111D02*
X0015950Y0146111D01*
X0015950Y0148509D02*
X0015950Y0148509D01*
X0015950Y0150908D02*
X0015950Y0150908D01*
X0015950Y0153306D02*
X0015950Y0153306D01*
X0015950Y0155705D02*
X0015950Y0155705D01*
X0015950Y0158103D02*
X0015950Y0158103D01*
M02*
