G75*
%MOIN*%
%OFA0B0*%
%FSLAX25Y25*%
%IPPOS*%
%LPD*%
%AMOC8*
5,1,8,0,0,1.08239X$1,22.5*
%
%ADD10C,0.00000*%
%ADD11C,0.05200*%
%ADD12OC8,0.05200*%
%ADD13C,0.04400*%
%ADD14C,0.06000*%
%ADD15C,0.06600*%
%ADD16OC8,0.07000*%
%ADD17C,0.07000*%
%ADD18OC8,0.19000*%
%ADD19C,0.07400*%
%ADD20C,0.03200*%
D10*
X0001688Y0002357D02*
X0242200Y0002200D01*
X0262300Y0002157D01*
X0262257Y0002357D01*
X0262200Y0012200D01*
X0272349Y0022257D01*
X0272449Y0151758D01*
X0262200Y0161758D01*
X0262200Y0207258D01*
X0255400Y0212400D01*
X0001688Y0212558D01*
X0001688Y0002357D01*
X0255901Y0032200D02*
X0255903Y0032358D01*
X0255909Y0032516D01*
X0255919Y0032674D01*
X0255933Y0032832D01*
X0255951Y0032989D01*
X0255972Y0033146D01*
X0255998Y0033302D01*
X0256028Y0033458D01*
X0256061Y0033613D01*
X0256099Y0033766D01*
X0256140Y0033919D01*
X0256185Y0034071D01*
X0256234Y0034222D01*
X0256287Y0034371D01*
X0256343Y0034519D01*
X0256403Y0034665D01*
X0256467Y0034810D01*
X0256535Y0034953D01*
X0256606Y0035095D01*
X0256680Y0035235D01*
X0256758Y0035372D01*
X0256840Y0035508D01*
X0256924Y0035642D01*
X0257013Y0035773D01*
X0257104Y0035902D01*
X0257199Y0036029D01*
X0257296Y0036154D01*
X0257397Y0036276D01*
X0257501Y0036395D01*
X0257608Y0036512D01*
X0257718Y0036626D01*
X0257831Y0036737D01*
X0257946Y0036846D01*
X0258064Y0036951D01*
X0258185Y0037053D01*
X0258308Y0037153D01*
X0258434Y0037249D01*
X0258562Y0037342D01*
X0258692Y0037432D01*
X0258825Y0037518D01*
X0258960Y0037602D01*
X0259096Y0037681D01*
X0259235Y0037758D01*
X0259376Y0037830D01*
X0259518Y0037900D01*
X0259662Y0037965D01*
X0259808Y0038027D01*
X0259955Y0038085D01*
X0260104Y0038140D01*
X0260254Y0038191D01*
X0260405Y0038238D01*
X0260557Y0038281D01*
X0260710Y0038320D01*
X0260865Y0038356D01*
X0261020Y0038387D01*
X0261176Y0038415D01*
X0261332Y0038439D01*
X0261489Y0038459D01*
X0261647Y0038475D01*
X0261804Y0038487D01*
X0261963Y0038495D01*
X0262121Y0038499D01*
X0262279Y0038499D01*
X0262437Y0038495D01*
X0262596Y0038487D01*
X0262753Y0038475D01*
X0262911Y0038459D01*
X0263068Y0038439D01*
X0263224Y0038415D01*
X0263380Y0038387D01*
X0263535Y0038356D01*
X0263690Y0038320D01*
X0263843Y0038281D01*
X0263995Y0038238D01*
X0264146Y0038191D01*
X0264296Y0038140D01*
X0264445Y0038085D01*
X0264592Y0038027D01*
X0264738Y0037965D01*
X0264882Y0037900D01*
X0265024Y0037830D01*
X0265165Y0037758D01*
X0265304Y0037681D01*
X0265440Y0037602D01*
X0265575Y0037518D01*
X0265708Y0037432D01*
X0265838Y0037342D01*
X0265966Y0037249D01*
X0266092Y0037153D01*
X0266215Y0037053D01*
X0266336Y0036951D01*
X0266454Y0036846D01*
X0266569Y0036737D01*
X0266682Y0036626D01*
X0266792Y0036512D01*
X0266899Y0036395D01*
X0267003Y0036276D01*
X0267104Y0036154D01*
X0267201Y0036029D01*
X0267296Y0035902D01*
X0267387Y0035773D01*
X0267476Y0035642D01*
X0267560Y0035508D01*
X0267642Y0035372D01*
X0267720Y0035235D01*
X0267794Y0035095D01*
X0267865Y0034953D01*
X0267933Y0034810D01*
X0267997Y0034665D01*
X0268057Y0034519D01*
X0268113Y0034371D01*
X0268166Y0034222D01*
X0268215Y0034071D01*
X0268260Y0033919D01*
X0268301Y0033766D01*
X0268339Y0033613D01*
X0268372Y0033458D01*
X0268402Y0033302D01*
X0268428Y0033146D01*
X0268449Y0032989D01*
X0268467Y0032832D01*
X0268481Y0032674D01*
X0268491Y0032516D01*
X0268497Y0032358D01*
X0268499Y0032200D01*
X0268497Y0032042D01*
X0268491Y0031884D01*
X0268481Y0031726D01*
X0268467Y0031568D01*
X0268449Y0031411D01*
X0268428Y0031254D01*
X0268402Y0031098D01*
X0268372Y0030942D01*
X0268339Y0030787D01*
X0268301Y0030634D01*
X0268260Y0030481D01*
X0268215Y0030329D01*
X0268166Y0030178D01*
X0268113Y0030029D01*
X0268057Y0029881D01*
X0267997Y0029735D01*
X0267933Y0029590D01*
X0267865Y0029447D01*
X0267794Y0029305D01*
X0267720Y0029165D01*
X0267642Y0029028D01*
X0267560Y0028892D01*
X0267476Y0028758D01*
X0267387Y0028627D01*
X0267296Y0028498D01*
X0267201Y0028371D01*
X0267104Y0028246D01*
X0267003Y0028124D01*
X0266899Y0028005D01*
X0266792Y0027888D01*
X0266682Y0027774D01*
X0266569Y0027663D01*
X0266454Y0027554D01*
X0266336Y0027449D01*
X0266215Y0027347D01*
X0266092Y0027247D01*
X0265966Y0027151D01*
X0265838Y0027058D01*
X0265708Y0026968D01*
X0265575Y0026882D01*
X0265440Y0026798D01*
X0265304Y0026719D01*
X0265165Y0026642D01*
X0265024Y0026570D01*
X0264882Y0026500D01*
X0264738Y0026435D01*
X0264592Y0026373D01*
X0264445Y0026315D01*
X0264296Y0026260D01*
X0264146Y0026209D01*
X0263995Y0026162D01*
X0263843Y0026119D01*
X0263690Y0026080D01*
X0263535Y0026044D01*
X0263380Y0026013D01*
X0263224Y0025985D01*
X0263068Y0025961D01*
X0262911Y0025941D01*
X0262753Y0025925D01*
X0262596Y0025913D01*
X0262437Y0025905D01*
X0262279Y0025901D01*
X0262121Y0025901D01*
X0261963Y0025905D01*
X0261804Y0025913D01*
X0261647Y0025925D01*
X0261489Y0025941D01*
X0261332Y0025961D01*
X0261176Y0025985D01*
X0261020Y0026013D01*
X0260865Y0026044D01*
X0260710Y0026080D01*
X0260557Y0026119D01*
X0260405Y0026162D01*
X0260254Y0026209D01*
X0260104Y0026260D01*
X0259955Y0026315D01*
X0259808Y0026373D01*
X0259662Y0026435D01*
X0259518Y0026500D01*
X0259376Y0026570D01*
X0259235Y0026642D01*
X0259096Y0026719D01*
X0258960Y0026798D01*
X0258825Y0026882D01*
X0258692Y0026968D01*
X0258562Y0027058D01*
X0258434Y0027151D01*
X0258308Y0027247D01*
X0258185Y0027347D01*
X0258064Y0027449D01*
X0257946Y0027554D01*
X0257831Y0027663D01*
X0257718Y0027774D01*
X0257608Y0027888D01*
X0257501Y0028005D01*
X0257397Y0028124D01*
X0257296Y0028246D01*
X0257199Y0028371D01*
X0257104Y0028498D01*
X0257013Y0028627D01*
X0256924Y0028758D01*
X0256840Y0028892D01*
X0256758Y0029028D01*
X0256680Y0029165D01*
X0256606Y0029305D01*
X0256535Y0029447D01*
X0256467Y0029590D01*
X0256403Y0029735D01*
X0256343Y0029881D01*
X0256287Y0030029D01*
X0256234Y0030178D01*
X0256185Y0030329D01*
X0256140Y0030481D01*
X0256099Y0030634D01*
X0256061Y0030787D01*
X0256028Y0030942D01*
X0255998Y0031098D01*
X0255972Y0031254D01*
X0255951Y0031411D01*
X0255933Y0031568D01*
X0255919Y0031726D01*
X0255909Y0031884D01*
X0255903Y0032042D01*
X0255901Y0032200D01*
D11*
X0252244Y0049128D02*
X0252244Y0054328D01*
X0242244Y0054328D02*
X0242244Y0049128D01*
X0232244Y0049128D02*
X0232244Y0054328D01*
X0222244Y0054328D02*
X0222244Y0049128D01*
X0212244Y0049128D02*
X0212244Y0054328D01*
X0202244Y0054328D02*
X0202244Y0049128D01*
X0192244Y0049128D02*
X0192244Y0054328D01*
X0182244Y0054328D02*
X0182244Y0049128D01*
X0172244Y0049128D02*
X0172244Y0054328D01*
X0162244Y0054328D02*
X0162244Y0049128D01*
X0152244Y0049128D02*
X0152244Y0054328D01*
X0142244Y0054328D02*
X0142244Y0049128D01*
X0132244Y0049128D02*
X0132244Y0054328D01*
X0122244Y0054328D02*
X0122244Y0049128D01*
X0122244Y0079128D02*
X0122244Y0084328D01*
X0132244Y0084328D02*
X0132244Y0079128D01*
X0142244Y0079128D02*
X0142244Y0084328D01*
X0152244Y0084328D02*
X0152244Y0079128D01*
X0162244Y0079128D02*
X0162244Y0084328D01*
X0172244Y0084328D02*
X0172244Y0079128D01*
X0182244Y0079128D02*
X0182244Y0084328D01*
X0192244Y0084328D02*
X0192244Y0079128D01*
X0202244Y0079128D02*
X0202244Y0084328D01*
X0212244Y0084328D02*
X0212244Y0079128D01*
X0222244Y0079128D02*
X0222244Y0084328D01*
X0232244Y0084328D02*
X0232244Y0079128D01*
X0242244Y0079128D02*
X0242244Y0084328D01*
X0252244Y0084328D02*
X0252244Y0079128D01*
D12*
X0254684Y0117306D03*
X0254684Y0157306D03*
X0248326Y0168214D03*
X0248326Y0178214D03*
X0172170Y0130852D03*
X0162244Y0130852D03*
X0162244Y0120852D03*
X0172170Y0120852D03*
X0183343Y0033159D03*
X0193343Y0033159D03*
X0038508Y0062506D03*
X0038508Y0072506D03*
X0035950Y0090950D03*
X0025950Y0090950D03*
X0013389Y0173547D03*
X0053389Y0173547D03*
D13*
X0157213Y0109428D02*
X0157213Y0105028D01*
X0177213Y0105028D02*
X0177213Y0109428D01*
D14*
X0181908Y0199108D02*
X0181908Y0205108D01*
X0191908Y0205108D02*
X0191908Y0199108D01*
X0201908Y0199108D02*
X0201908Y0205108D01*
X0211908Y0205108D02*
X0211908Y0199108D01*
X0221908Y0199108D02*
X0221908Y0205108D01*
X0231908Y0205108D02*
X0231908Y0199108D01*
X0241908Y0199108D02*
X0241908Y0205108D01*
X0251908Y0205108D02*
X0251908Y0199108D01*
X0165920Y0199272D02*
X0165920Y0205272D01*
X0155920Y0205272D02*
X0155920Y0199272D01*
X0145920Y0199272D02*
X0145920Y0205272D01*
X0135920Y0205272D02*
X0135920Y0199272D01*
X0125920Y0199272D02*
X0125920Y0205272D01*
X0115920Y0205272D02*
X0115920Y0199272D01*
X0105920Y0199272D02*
X0105920Y0205272D01*
X0095920Y0205272D02*
X0095920Y0199272D01*
X0047803Y0204097D02*
X0041803Y0204097D01*
X0022203Y0204097D02*
X0016203Y0204097D01*
X0016203Y0186297D02*
X0022203Y0186297D01*
X0041803Y0186297D02*
X0047803Y0186297D01*
X0054200Y0087200D02*
X0060200Y0087200D01*
X0060200Y0077200D02*
X0054200Y0077200D01*
X0054200Y0067200D02*
X0060200Y0067200D01*
X0151943Y0015608D02*
X0151943Y0009608D01*
X0161943Y0009608D02*
X0161943Y0015608D01*
X0171943Y0015608D02*
X0171943Y0009608D01*
X0181943Y0009608D02*
X0181943Y0015608D01*
X0202320Y0015308D02*
X0202320Y0009308D01*
X0212320Y0009308D02*
X0212320Y0015308D01*
X0222320Y0015308D02*
X0222320Y0009308D01*
X0232320Y0009308D02*
X0232320Y0015308D01*
X0242320Y0015308D02*
X0242320Y0009308D01*
X0252320Y0009308D02*
X0252320Y0015308D01*
D15*
X0188450Y0022200D03*
X0182200Y0042200D03*
X0140950Y0042200D03*
X0075950Y0022200D03*
X0070108Y0011093D03*
X0070108Y0051093D03*
X0069700Y0090950D03*
X0075950Y0105950D03*
X0070950Y0113450D03*
X0068360Y0129610D03*
X0060950Y0137200D03*
X0079700Y0147200D03*
X0100950Y0137200D03*
X0100950Y0129700D03*
X0105950Y0153450D03*
X0105950Y0163450D03*
X0132200Y0187200D03*
X0140950Y0193450D03*
X0194700Y0153450D03*
X0240950Y0147200D03*
X0260950Y0103450D03*
X0242200Y0090950D03*
X0232244Y0097200D03*
X0194700Y0103450D03*
X0115950Y0105950D03*
X0044700Y0097200D03*
X0035950Y0113450D03*
X0064700Y0163450D03*
X0060950Y0187200D03*
X0087200Y0193450D03*
D16*
X0047876Y0152594D03*
X0017108Y0075250D03*
D17*
X0017108Y0065250D03*
X0057876Y0152594D03*
D18*
X0054700Y0039400D03*
X0031100Y0039400D03*
X0042900Y0019700D03*
D19*
X0015950Y0104700D03*
X0015950Y0114700D03*
X0015950Y0124700D03*
X0015950Y0134700D03*
X0015950Y0144700D03*
X0015950Y0154700D03*
X0072200Y0175950D03*
X0082200Y0175950D03*
X0092200Y0175950D03*
X0102200Y0175950D03*
X0112200Y0175950D03*
X0122200Y0175950D03*
D20*
X0132200Y0187200D02*
X0060950Y0187200D01*
X0087200Y0193450D02*
X0140950Y0193450D01*
X0105950Y0163450D02*
X0064700Y0163450D01*
X0079700Y0147200D02*
X0240950Y0147200D01*
X0194700Y0153450D02*
X0105950Y0153450D01*
X0100950Y0129700D02*
X0068450Y0129700D01*
X0068360Y0129610D01*
X0070950Y0113450D02*
X0035950Y0113450D01*
X0044700Y0097200D02*
X0232244Y0097200D01*
X0242200Y0090950D02*
X0069700Y0090950D01*
X0075950Y0105950D02*
X0115950Y0105950D01*
X0194700Y0103450D02*
X0260950Y0103450D01*
X0182200Y0042200D02*
X0140950Y0042200D01*
X0188450Y0022200D02*
X0075950Y0022200D01*
M02*
